<?xml version="1.0" encoding="UTF-8"?>
<svg version="1.1" xmlns="http://www.w3.org/2000/svg" width="1024" height="1024">
<path d="M0 0 C0.66 0.33 1.32 0.66 2 1 C1.25556641 1.65742188 1.25556641 1.65742188 0.49609375 2.328125 C-7.22614821 9.5375046 -12.37135366 17.7789043 -15 28 C-13.87464844 27.00419922 -13.87464844 27.00419922 -12.7265625 25.98828125 C-0.47142073 15.33924938 -0.47142073 15.33924938 7 13 C7.99 13.33 8.98 13.66 10 14 C8.97519531 14.51949219 7.95039063 15.03898437 6.89453125 15.57421875 C5.53359757 16.27814996 4.17293473 16.98260498 2.8125 17.6875 C1.80219727 18.19700195 1.80219727 18.19700195 0.77148438 18.71679688 C-3.54297797 20.96873576 -6.67495347 23.37161589 -10 27 C-10.89525391 27.82564453 -10.89525391 27.82564453 -11.80859375 28.66796875 C-18.80588907 35.1954217 -24.32764528 43.54226742 -25.3359375 53.2265625 C-25.47027067 64.91354796 -23.34445634 75.36103343 -15 84 C-11.31931853 87.32530533 -7.83741185 89.05912296 -3.1875 90.75 C-2.02605469 91.17796875 -0.86460937 91.6059375 0.33203125 92.046875 C1.65267578 92.51867187 1.65267578 92.51867187 3 93 C-2.34697022 94.95007149 -7.07314189 92.17664179 -12 90 C-19.99251017 85.2044939 -24.2320209 75.57363782 -27 67 C-29.15038521 57.74337492 -28.45292749 48.06044796 -23.67578125 39.67578125 C-22.65261372 38.09403408 -21.62778081 36.51336332 -20.6015625 34.93359375 C-18.5803589 31.23134032 -17.35945492 27.43914904 -16.0625 23.4375 C-13.78508811 16.54527324 -11.11240892 11.28396627 -6 6 C-5.41347656 5.38382813 -4.82695312 4.76765625 -4.22265625 4.1328125 C-2.84466455 2.7256398 -1.42702922 1.35741804 0 0 Z " fill="#000000" transform="translate(421,24)"/>
<path d="M0 0 C0.99 0.99 0.99 0.99 2 2 C0.54166667 1.70833333 -0.91666667 1.41666667 -2.375 1.125 C-3.29152344 0.94453125 -4.20804688 0.7640625 -5.15234375 0.578125 C-6.94087321 0.21502163 -8.72567395 -0.1675503 -10.50390625 -0.578125 C-25.95075315 -4.04932655 -40.14908159 -0.53751917 -54.3515625 5.8515625 C-57.1881446 7.08158483 -60.05629285 8.05904962 -63 9 C-49.00292481 -7.09902505 -18.05234505 -6.63048598 0 0 Z " fill="#000000" transform="translate(666,35)"/>
<path d="M0 0 C0 3.71491293 -0.84291359 4.22194243 -3.25 6.9375 C-9.89977307 15.25644687 -12.17948539 25.46558828 -12 36 C-11.54071577 39.72429488 -10.86924706 43.35059911 -10 47 C-14.76447902 41.19976467 -14.51692241 35.26460598 -14 28 C-12.02083712 16.43062873 -8.01746535 8.46788475 0 0 Z " fill="#000000" transform="translate(456,35)"/>
<path d="M0 0 C1.16080078 0.00451172 2.32160156 0.00902344 3.51757812 0.01367188 C6.36593934 0.02539353 9.21419222 0.0418024 12.0625 0.0625 C12.0625 0.3925 12.0625 0.7225 12.0625 1.0625 C11.31379639 1.10213867 10.56509277 1.14177734 9.79370117 1.18261719 C-9.23786855 2.23774059 -27.57981091 3.47208631 -45.2734375 11.01171875 C-47.83436416 12.02182032 -50.22750221 12.61411855 -52.9375 13.0625 C-42.54629895 0.86874367 -14.48292277 -0.10703695 0 0 Z " fill="#000000" transform="translate(502.9375,40.9375)"/>
<path d="M0 0 C1.23322998 0.00491455 2.46645996 0.0098291 3.73706055 0.01489258 C18.89707998 0.20993142 34.66713569 3.03230383 48.1875 10.3125 C47.8575 10.9725 47.5275 11.6325 47.1875 12.3125 C46.44628906 11.99796875 45.70507812 11.6834375 44.94140625 11.359375 C38.48926749 8.73745325 32.14990933 6.64708142 25.375 5.0625 C24.682854 4.89975586 23.99070801 4.73701172 23.27758789 4.56933594 C-6.81713591 -2.19255549 -35.48142325 5.24135664 -62.37451172 18.79296875 C-63.31311035 19.2621875 -64.25170898 19.73140625 -65.21875 20.21484375 C-66.05728516 20.64273193 -66.89582031 21.07062012 -67.75976562 21.51147461 C-68.43716797 21.77581299 -69.11457031 22.04015137 -69.8125 22.3125 C-70.4725 21.9825 -71.1325 21.6525 -71.8125 21.3125 C-49.04870633 8.77430275 -26.38712075 -0.12474898 0 0 Z " fill="#000000" transform="translate(569.8125,42.6875)"/>
<path d="M0 0 C-3.93015392 1.87003926 -7.87018236 3.7182591 -11.8125 5.5625 C-12.93205078 6.09552734 -14.05160156 6.62855469 -15.20507812 7.17773438 C-16.27822266 7.67724609 -17.35136719 8.17675781 -18.45703125 8.69140625 C-19.44678955 9.15748291 -20.43654785 9.62355957 -21.45629883 10.10375977 C-24 11 -24 11 -27 10 C-23.06984608 8.12996074 -19.12981764 6.2817409 -15.1875 4.4375 C-14.06794922 3.90447266 -12.94839844 3.37144531 -11.79492188 2.82226562 C-10.72177734 2.32275391 -9.64863281 1.82324219 -8.54296875 1.30859375 C-7.55321045 0.84251709 -6.56345215 0.37644043 -5.54370117 -0.10375977 C-3 -1 -3 -1 0 0 Z " fill="#000000" transform="translate(592,51)"/>
<path d="M0 0 C-0.82242188 0.40089844 -1.64484375 0.80179688 -2.4921875 1.21484375 C-13.35089135 6.74450703 -21.35183145 13.78564081 -29.30859375 23.0546875 C-30.81033769 24.78186644 -32.35996543 26.405104 -34 28 C-29.53221942 15.5650442 -17.72294989 6.40521849 -6.375 0.3125 C-3 -1 -3 -1 0 0 Z " fill="#000000" transform="translate(368,55)"/>
<path d="M0 0 C0.33 0.66 0.66 1.32 1 2 C0.1015625 3.890625 0.1015625 3.890625 -1.375 6.25 C-1.93058594 7.14847656 -2.48617188 8.04695313 -3.05859375 8.97265625 C-4.4072998 11.07576931 -5.77601659 13.16612982 -7.16015625 15.24609375 C-21.79313783 37.25571901 -29.23178999 60.39544316 -26 87 C-31.44364776 78.83452836 -29.73733442 65.53805712 -28 56.25 C-23.09054761 36.31395267 -13.93209082 19.52644157 -2 3 C-1.34 2.01 -0.68 1.02 0 0 Z " fill="#000000" transform="translate(334,57)"/>
<path d="M0 0 C0.33 0 0.66 0 1 0 C1.08636719 0.87140625 1.17273438 1.7428125 1.26171875 2.640625 C2.42746788 12.52275527 3.92087051 22.91271777 11.8125 29.75 C12.864375 30.4925 13.91625 31.235 15 32 C14.01 32.495 14.01 32.495 13 33 C5.88094809 27.72070308 2.2687425 21.86197362 0.3046875 13.23046875 C-0.2954242 8.83734333 -0.1463189 4.42208232 0 0 Z " fill="#000000" transform="translate(406,60)"/>
<path d="M0 0 C-0.99 0.495 -0.99 0.495 -2 1 C-4.55026135 -0.02194589 -6.97191847 -1.11176372 -9.4375 -2.3125 C-10.20263916 -2.67569336 -10.96777832 -3.03888672 -11.75610352 -3.41308594 C-15.62776087 -5.27349783 -19.42729801 -7.20710424 -23.15625 -9.33984375 C-33.54270338 -15.22919406 -44.19828449 -19.49406387 -55.4375 -23.4375 C-56.167341 -23.69470825 -56.89718201 -23.9519165 -57.6491394 -24.21691895 C-84.72781577 -33.70437174 -109.99611153 -36.78751805 -137.20703125 -25.890625 C-140 -25 -140 -25 -143 -26 C-94.42529512 -49.4524747 -43.05395675 -24.06537189 0 0 Z " fill="#000000" transform="translate(677,99)"/>
<path d="M0 0 C0.66 0.33 1.32 0.66 2 1 C1.03320312 1.85980469 0.06640625 2.71960938 -0.9296875 3.60546875 C-17.39435869 18.45907388 -33.77576539 37.31198475 -35.15429688 60.60742188 C-35.32132652 66.41272057 -35.21207631 72.19735652 -35 78 C-39.4732391 71.29014135 -38.29226967 62.1890563 -36.9375 54.5625 C-31.68923212 31.58359738 -17.39214466 14.93988999 0 0 Z " fill="#000000" transform="translate(306,71)"/>
<path d="M0 0 C0.93134766 0.00322266 1.86269531 0.00644531 2.82226562 0.00976562 C4.26182617 0.02233398 4.26182617 0.02233398 5.73046875 0.03515625 C6.70951172 0.03966797 7.68855469 0.04417969 8.69726562 0.04882812 C11.10422986 0.06056941 13.51106732 0.07699206 15.91796875 0.09765625 C15.91796875 0.42765625 15.91796875 0.75765625 15.91796875 1.09765625 C14.21253906 1.15373047 14.21253906 1.15373047 12.47265625 1.2109375 C3.56386836 1.56926466 -4.69438877 2.36490062 -13.359375 4.57421875 C-16.08203125 5.09765625 -16.08203125 5.09765625 -19.08203125 4.09765625 C-17.68754016 3.61459725 -16.29136418 3.13640108 -14.89453125 2.66015625 C-14.11722656 2.39332031 -13.33992187 2.12648438 -12.5390625 1.8515625 C-8.31855573 0.55655804 -4.41363509 -0.02707752 0 0 Z " fill="#000000" transform="translate(598.08203125,73.90234375)"/>
<path d="M0 0 C-7.01340039 2.91315688 -13.26977295 3.43360994 -20.8125 3.3125 C-22.34680664 3.31733398 -22.34680664 3.31733398 -23.91210938 3.32226562 C-32.12302564 3.26311692 -32.12302564 3.26311692 -36 1 C-35.35562988 1.01047363 -34.71125977 1.02094727 -34.04736328 1.03173828 C-31.07328331 1.07380674 -28.09926628 1.09948546 -25.125 1.125 C-23.60519531 1.15013672 -23.60519531 1.15013672 -22.0546875 1.17578125 C-16.14343082 1.21367392 -10.79730271 0.77211046 -5.05419922 -0.66455078 C-3 -1 -3 -1 0 0 Z " fill="#000000" transform="translate(675,73)"/>
<path d="M0 0 C0.33 0.66 0.66 1.32 1 2 C-0.19318575 4.58523579 -1.44547891 7.09695112 -2.75 9.625 C-8.70874869 21.75554041 -11.13056711 33.45718726 -9 47 C-8.814375 48.2375 -8.62875 49.475 -8.4375 50.75 C-8.293125 51.4925 -8.14875 52.235 -8 53 C-12.05562606 48.94437394 -12.18445126 43.54758156 -12.375 38.0625 C-12.14694176 26.36445367 -8.71481521 8.71481521 0 0 Z " fill="#000000" transform="translate(333,83)"/>
<path d="M0 0 C0.86238281 0.71542969 1.72476562 1.43085938 2.61328125 2.16796875 C3.42152344 2.85503906 4.22976563 3.54210937 5.0625 4.25 C5.77535156 4.85328125 6.48820312 5.4565625 7.22265625 6.078125 C9.231549 8.25037826 10.07194797 10.21103535 11 13 C10.38125 12.360625 9.7625 11.72125 9.125 11.0625 C-25.13275156 -22.9097703 -67.93851571 -36.34470605 -115.54882812 -36.24658203 C-175.197892 -35.88502658 -230.27604785 -7.3813177 -276 29 C-276.61101562 29.47969238 -277.22203125 29.95938477 -277.8515625 30.45361328 C-292.63682151 42.11627464 -306.64129739 55.97049715 -318 71 C-318.77859375 71.97324219 -319.5571875 72.94648438 -320.359375 73.94921875 C-355.96942008 118.6255395 -371.1993988 173.55042877 -365.22973633 230.31640625 C-363.898082 241.09428302 -361.63893721 251.61996972 -359.27636719 262.21191406 C-354.85452554 282.35094004 -352.18835152 302.37060114 -353 323 C-353.33 323 -353.66 323 -354 323 C-354.06993164 322.15630859 -354.13986328 321.31261719 -354.21191406 320.44335938 C-355.94728442 299.87559361 -358.40912868 279.72359677 -362.51953125 259.47265625 C-365.71557433 243.68621814 -368.30412987 228.13039509 -369 212 C-369.03319336 211.27393555 -369.06638672 210.54787109 -369.10058594 209.79980469 C-370.41130132 176.22283655 -363.33397043 140.37953578 -347.02978516 110.86669922 C-345.96955883 108.94481907 -344.94304755 107.00722847 -343.91796875 105.06640625 C-334.22298298 86.99396408 -321.70380176 70.97389177 -307.765625 55.98828125 C-305.07232643 53.0919465 -302.44512012 50.13910323 -299.8125 47.1875 C-295.78048119 42.75795821 -291.58392872 38.84080034 -287 35 C-286.01773438 34.12988281 -285.03546875 33.25976562 -284.0234375 32.36328125 C-220.2945776 -23.94322875 -129.7172953 -57.13118669 0 0 Z " fill="#000000" transform="translate(644,130)"/>
<path d="M0 0 C-0.96099609 0.52787109 -0.96099609 0.52787109 -1.94140625 1.06640625 C-11.46558006 6.50270814 -17.15035099 12.14426169 -22 22 C-23 19 -23 19 -22.28515625 17.23828125 C-18.14256393 10.71336747 -8.88479649 -2.96159883 0 0 Z " fill="#000000" transform="translate(363,96)"/>
<path d="M0 0 C38.9090038 -1.72928906 73.32015222 14.22060082 106.69140625 32.54296875 C107.7074292 33.09944092 108.72345215 33.65591309 109.77026367 34.22924805 C111.4345848 35.14173736 113.09867607 36.05467014 114.75894165 36.97451782 C123.97315033 42.07139529 133.27903586 46.42735177 143.0625 50.3125 C144.44679345 50.86979371 145.83098728 51.42733493 147.21508789 51.98510742 C156.7187261 55.79373526 166.30603613 59.34254456 175.9375 62.8125 C190.49169718 68.06197932 204.74127597 73.30866912 217 83 C217.64195312 83.46792969 218.28390625 83.93585938 218.9453125 84.41796875 C225.35782385 89.37309115 230.30809007 97.04802333 232 105 C232.13925481 108.00889864 232.12036322 110.99091957 232 114 C231.67 114 231.34 114 231 114 C230.84144531 113.0821875 230.68289063 112.164375 230.51953125 111.21875 C229.12317669 103.8743879 227.81981426 97.80914456 223 92 C222.20335937 91.02160156 222.20335937 91.02160156 221.390625 90.0234375 C208.23279812 75.45985988 185.61264815 68.83067966 167.66723633 62.49194336 C144.58412791 54.2857404 121.8883019 44.43427587 100.63818359 32.20507812 C93.58126632 28.14757834 86.34605447 24.50329081 79 21 C78.29117676 20.66081543 77.58235352 20.32163086 76.85205078 19.97216797 C52.15048593 8.26795134 27.18055871 2.91807729 0 1 C0 0.67 0 0.34 0 0 Z " fill="#000000" transform="translate(621,96)"/>
<path d="M0 0 C0.33 0 0.66 0 1 0 C1.27263672 1.41152344 1.27263672 1.41152344 1.55078125 2.8515625 C1.80214844 4.09679687 2.05351562 5.34203125 2.3125 6.625 C2.55613281 7.85476562 2.79976563 9.08453125 3.05078125 10.3515625 C3.87552454 14.03960528 3.87552454 14.03960528 5.66796875 17.3359375 C6.10753906 18.21507812 6.54710937 19.09421875 7 20 C6.67 20.66 6.34 21.32 6 22 C5.18247697 20.41925436 4.37118003 18.83528777 3.5625 17.25 C3.11003906 16.36828125 2.65757812 15.4865625 2.19140625 14.578125 C-0.12258027 9.5708099 -0.09077518 5.44651064 0 0 Z " fill="#000000" transform="translate(292,123)"/>
<path d="M0 0 C-0.66 0.33 -1.32 0.66 -2 1 C-4.0464316 0.20912343 -6.0616733 -0.66246634 -8.0625 -1.5625 C-15.11505468 -4.55974683 -22.30681135 -6.5251862 -29.75 -8.3125 C-31.31053101 -8.69353882 -31.31053101 -8.69353882 -32.90258789 -9.08227539 C-43.25198864 -11.49519517 -53.39624596 -12.1949839 -64 -12.1875 C-65.4384729 -12.1884668 -65.4384729 -12.1884668 -66.90600586 -12.18945312 C-72.70949751 -12.14602933 -78.21473739 -11.81294741 -83.87890625 -10.4375 C-86.2950352 -9.93914559 -88.5397179 -9.93081808 -91 -10 C-69.74003072 -24.17331285 -19.92861008 -12.85471413 0 0 Z " fill="#000000" transform="translate(749,143)"/>
<path d="M0 0 C5.00513358 1.70833901 9.23735534 4.51945657 13.6875 7.3125 C24.87595261 14.21837168 34.80788561 19.05976269 47.73828125 21.7890625 C91.85150963 31.2324075 131.22370187 59.18745913 157.79296875 95.37060547 C158.90660045 96.87391817 160.06100169 98.34679968 161.21875 99.81640625 C173.60044054 116.30289637 181.07270724 136.10154843 187.5625 155.5 C187.93406723 156.5998674 187.93406723 156.5998674 188.31314087 157.72195435 C193.97304623 174.61970118 197.22777207 191.7157967 199.38305664 209.38183594 C199.69010583 211.89633981 200.00916966 214.40910572 200.33007812 216.921875 C202.99190157 238.01170689 204.68896574 258.90834024 201.1875 280 C201.0222583 280.99620361 200.8570166 281.99240723 200.68676758 283.01879883 C199.70917742 288.4008352 198.38731503 293.07488016 196 298 C194.69521395 294.08564186 195.62912219 292.38069885 196.8125 288.4375 C202.23193214 268.31556679 201.3661363 247.49522246 199 227 C198.9177417 226.27673523 198.8354834 225.55347046 198.75073242 224.80828857 C195.54328772 196.09240754 195.54328772 196.09240754 189 168 C188.63334229 166.7615332 188.63334229 166.7615332 188.25927734 165.49804688 C179.12899558 135.29656313 166.58283342 107.56648734 145.06640625 84.25390625 C143.23259442 82.2536994 141.48962633 80.20656762 139.75 78.125 C115.05636794 49.98443075 79.24628719 30.26347323 42.6875 23.0625 C27.99675763 20.10242505 10.12550586 11.29523939 0 0 Z " fill="#000000" transform="translate(677,139)"/>
<path d="M0 0 C1.12894876 0.93274109 2.25300876 1.87140122 3.375 2.8125 C4.00148438 3.33457031 4.62796875 3.85664063 5.2734375 4.39453125 C7 6 7 6 9 9 C5.18063472 7.44396229 2.73955562 5.04395069 0 2 C0 1.34 0 0.68 0 0 Z " fill="#000000" transform="translate(299,145)"/>
<path d="M0 0 C3.0016066 0.99536748 6.00151527 1.9952919 9 3 C10.32837891 3.44448486 10.32837891 3.44448486 11.68359375 3.89794922 C49.78261794 16.78241936 84.37427078 35.95671482 115 62 C115.8652832 62.73331543 115.8652832 62.73331543 116.74804688 63.48144531 C136.00852327 79.96634547 141.37068648 99.63859209 145 124 C145.21602066 125.36460315 145.43215449 126.7291884 145.6484375 128.09375 C146.66032104 134.9569601 147.29051123 141.83080183 147.75 148.75 C147.80696045 149.52569336 147.8639209 150.30138672 147.92260742 151.10058594 C148.14384906 155.01078201 148.23188429 156.65217357 146 160 C145.90295776 158.65143921 145.90295776 158.65143921 145.80395508 157.27563477 C143.66620643 114.22136905 143.66620643 114.22136905 126 76 C125.47792969 75.32839844 124.95585938 74.65679687 124.41796875 73.96484375 C120.69757804 69.44287003 116.54509707 65.82791151 111.91796875 62.2578125 C109.76593212 60.59264895 107.65177304 58.90692574 105.55078125 57.1796875 C91.1276271 45.35335174 75.99382344 36.09955746 59.52685547 27.35595703 C57.3556726 26.19086045 55.20683894 24.99763253 53.06640625 23.77734375 C40.7088332 16.79639302 27.38405634 12.04108032 14.07421875 7.203125 C13.33679443 6.93322754 12.59937012 6.66333008 11.83959961 6.38525391 C9.89148436 5.67647591 7.93811218 4.98219332 5.984375 4.2890625 C3.18928031 3.0817572 2.00483877 2.1665674 0 0 Z " fill="#000000" transform="translate(729,149)"/>
<path d="M0 0 C1.58941406 0.01353516 1.58941406 0.01353516 3.2109375 0.02734375 C4.00757813 0.03894531 4.80421875 0.05054688 5.625 0.0625 C5.625 0.3925 5.625 0.7225 5.625 1.0625 C4.31789063 1.20945313 4.31789063 1.20945313 2.984375 1.359375 C-14.05308957 3.49827748 -28.10936955 8.6212889 -39.375 22.0625 C-42.68762716 26.82927826 -45.30765273 31.63931926 -47.375 37.0625 C-48.68538168 33.13135495 -47.75489883 32.09117974 -45.9375 28.4375 C-38.63756658 14.52567286 -27.20209565 5.96435403 -12.375 1.0625 C-8.19818263 0.17533958 -4.26404262 -0.04737825 0 0 Z " fill="#000000" transform="translate(294.375,154.9375)"/>
<path d="M0 0 C28.2360027 2.37160102 28.2360027 2.37160102 37 8 C36.34 8.33 35.68 8.66 35 9 C33.54062837 8.47376956 32.10737296 7.87501585 30.6875 7.25 C24.01261064 4.66559691 17.23788955 3.87740944 10.17456055 3.04003906 C8.85065308 2.87713379 8.85065308 2.87713379 7.5 2.7109375 C6.7059375 2.62118652 5.911875 2.53143555 5.09375 2.43896484 C3 2 3 2 0 0 Z " fill="#000000" transform="translate(284,161)"/>
<path d="M0 0 C4.42094054 1.95595825 8.86905925 3.82805626 13.34228516 5.66064453 C26.81429099 11.19787896 39.21004787 17.46964981 50.7265625 26.515625 C51.58894531 27.18335938 52.45132813 27.85109375 53.33984375 28.5390625 C55.39009019 30.23697526 57.07393777 31.86906466 58.7890625 33.890625 C59.3871875 34.59316406 59.9853125 35.29570312 60.6015625 36.01953125 C61.3028125 36.84324219 62.0040625 37.66695312 62.7265625 38.515625 C63.5928125 39.49402344 64.4590625 40.47242188 65.3515625 41.48046875 C68.547543 45.10073291 71.64900334 48.79445259 74.7265625 52.515625 C75.27231934 53.16805176 75.81807617 53.82047852 76.38037109 54.49267578 C101.82499226 85.36687118 126.34031949 137.88826569 131.7265625 177.515625 C131.90703125 178.78664063 132.0875 180.05765625 132.2734375 181.3671875 C136.68496591 217.82308565 128.78841272 263.12705164 106.1953125 292.671875 C105.710625 293.2803125 105.2259375 293.88875 104.7265625 294.515625 C104.7265625 291.30349669 105.10987929 290.5258911 106.73828125 287.890625 C107.16407471 287.19018066 107.58986816 286.48973633 108.02856445 285.76806641 C108.48577881 285.02476074 108.94299316 284.28145508 109.4140625 283.515625 C128.23783029 252.02081003 136.36034501 204.65147862 127.94140625 168.5703125 C122.4976006 149.69781001 114.5530863 131.82296864 106.34326172 114.02978516 C104.7887984 110.65090491 103.25590973 107.26315943 101.73046875 103.87109375 C94.60629668 88.06845129 87.68180033 73.08286631 76.7265625 59.515625 C75.95723389 58.55342041 75.95723389 58.55342041 75.17236328 57.57177734 C66.20566112 46.32627889 66.20566112 46.32627889 56.7265625 35.515625 C56.19160156 34.9278125 55.65664063 34.34 55.10546875 33.734375 C47.92114193 26.16843267 39.04707441 20.80804658 29.8515625 16.015625 C28.89757568 15.51788574 27.94358887 15.02014648 26.96069336 14.50732422 C17.60117431 9.75288962 7.98080083 5.66282552 -1.7109375 1.640625 C-2.46381042 1.32810791 -3.21668335 1.01559082 -3.99237061 0.69360352 C-9.07022697 -1.40601322 -14.16418811 -3.46240187 -19.2734375 -5.484375 C-19.98921967 -5.76834137 -20.70500183 -6.05230774 -21.44247437 -6.34487915 C-32.80536139 -10.82655535 -32.80536139 -10.82655535 -44.7109375 -13.421875 C-45.48735596 -13.53829346 -46.26377441 -13.65471191 -47.0637207 -13.7746582 C-55.19303888 -14.84973853 -63.14841571 -14.34785363 -71.2734375 -13.484375 C-52.27811885 -26.14792076 -17.78707752 -7.87993963 0 0 Z " fill="#000000" transform="translate(739.2734375,177.484375)"/>
<path d="M0 0 C0.66 0.33 1.32 0.66 2 1 C1.52949219 1.4125 1.05898438 1.825 0.57421875 2.25 C-8.47052898 10.63933123 -8.80052968 20.37219358 -10 32 C-10.33 32 -10.66 32 -11 32 C-11.51519103 22.19705951 -11.6716535 12.72202527 -5.17578125 4.765625 C-3.51206347 3.07828445 -1.82866692 1.50505451 0 0 Z " fill="#000000" transform="translate(269,177)"/>
<path d="M0 0 C0.33 0 0.66 0 1 0 C1.33634376 1.93697967 1.66897165 3.87460486 2 5.8125 C2.185625 6.89144531 2.37125 7.97039062 2.5625 9.08203125 C3 12 3 12 3 15 C-0.66100646 11.33899354 -0.96161063 6.97142313 -1 2 C-0.67 1.34 -0.34 0.68 0 0 Z " fill="#000000" transform="translate(274,179)"/>
<path d="M0 0 C6.54447942 5.35716458 12.76379768 11.17224799 18.69140625 17.203125 C18.36140625 17.863125 18.03140625 18.523125 17.69140625 19.203125 C16.90830078 18.38521484 16.90830078 18.38521484 16.109375 17.55078125 C5.90073487 7.09184171 -6.81286088 -5.77210432 -22.37109375 -6.546875 C-26.1998701 -6.28184924 -27.22440501 -5.85917466 -30.43359375 -3.484375 C-33.43400578 0.81621558 -33.71862013 4.03679262 -33.30859375 9.203125 C-31.19245008 17.23638378 -26.7872896 23.10185008 -21.30859375 29.203125 C-20.6125 29.99332031 -19.91640625 30.78351563 -19.19921875 31.59765625 C-12.1039391 39.17003229 -3.73742183 44.86091903 4.71679688 50.80517578 C10.12247527 54.6321929 15.20586993 58.77651352 20.22436523 63.09423828 C26.39956518 68.39924257 32.76563748 73.23115149 39.43359375 77.8984375 C43.62834415 80.86594677 47.67780993 83.99649514 51.69140625 87.203125 C50.70140625 87.698125 50.70140625 87.698125 49.69140625 88.203125 C38.41010956 80.29935939 27.37068713 72.1468369 16.95068359 63.1262207 C11.51542921 58.42123892 5.92082493 54.16463465 0.00390625 50.078125 C-6.55604991 45.54002341 -12.57389628 40.76977272 -18.30859375 35.203125 C-19.01242187 34.56117188 -19.71625 33.91921875 -20.44140625 33.2578125 C-27.22672736 26.88528659 -34.55152143 18.04627217 -35.609375 8.484375 C-35.64865586 -0.83828287 -35.64865586 -0.83828287 -32.30859375 -4.796875 C-31.83421875 -5.374375 -31.35984375 -5.951875 -30.87109375 -6.546875 C-21.87252497 -13.74573002 -7.65832969 -5.65462545 0 0 Z " fill="#000000" transform="translate(732.30859375,191.796875)"/>
<path d="M0 0 C4.04420651 1.77945087 7.46078487 4.39529673 11 7 C10.01 7.33 9.02 7.66 8 8 C5.95703125 6.6015625 5.95703125 6.6015625 3.8125 4.625 C3.09707031 3.97789062 2.38164063 3.33078125 1.64453125 2.6640625 C0 1 0 1 0 0 Z " fill="#000000" transform="translate(820,183)"/>
<path d="M0 0 C3.22535677 3.01610544 5.61505543 6.20612048 8.0625 9.875 C13.02943743 17.19788796 18.45439114 24.11000112 24 31 C24.78632812 31.98226562 25.57265625 32.96453125 26.3828125 33.9765625 C31.39010738 40.17025477 36.61561399 46.13191028 42 52 C41.505 52.99 41.505 52.99 41 54 C34.77484669 48.08016756 29.33474055 41.72453542 24 35 C23.1120436 33.89187545 22.22402064 32.78380423 21.3359375 31.67578125 C16.57324339 25.70281838 11.94620113 19.65030525 7.5 13.4375 C7.09080322 12.86604248 6.68160645 12.29458496 6.26000977 11.70581055 C0 2.86421836 0 2.86421836 0 0 Z " fill="#000000" transform="translate(678,188)"/>
<path d="M0 0 C3.59930552 2.62652025 6.07666989 4.93963643 8 9 C7.67 9.66 7.34 10.32 7 11 C5.82750647 9.54634731 4.66216184 8.08692581 3.5 6.625 C2.52546875 5.40683594 2.52546875 5.40683594 1.53125 4.1640625 C0 2 0 2 0 0 Z " fill="#000000" transform="translate(835,193)"/>
<path d="M0 0 C3.21043882 1.38188453 5.04936365 2.92421903 7.25 5.625 C8.03117188 6.57246094 8.03117188 6.57246094 8.828125 7.5390625 C9.40820312 8.26222656 9.40820312 8.26222656 10 9 C6.78956118 7.61811547 4.95063635 6.07578097 2.75 3.375 C2.22921875 2.74335938 1.7084375 2.11171875 1.171875 1.4609375 C0.78515625 0.97882813 0.3984375 0.49671875 0 0 Z " fill="#000000" transform="translate(749,204)"/>
<path d="M0 0 C0 3 0 3 -1.23413086 4.42285156 C-1.80526611 4.9072168 -2.37640137 5.39158203 -2.96484375 5.890625 C-3.59535645 6.43154785 -4.22586914 6.9724707 -4.87548828 7.52978516 C-5.55595215 8.09745605 -6.23641602 8.66512695 -6.9375 9.25 C-7.62827637 9.83700684 -8.31905273 10.42401367 -9.03076172 11.02880859 C-13.17188584 14.52910225 -17.37979797 17.92101428 -21.69921875 21.19921875 C-25.26244129 23.98809072 -28.68480654 26.93997436 -32.12451172 29.87890625 C-35.44276424 32.70675271 -38.8101155 35.44477895 -42.25 38.125 C-54.44839399 47.9152968 -62.79336878 58.75096183 -67 74 C-68.53162066 69.57643771 -67.14320899 66.944256 -65.37109375 62.79296875 C-60.12090359 52.09813695 -53.3521448 43.89250827 -44.09375 36.48828125 C-40.84831798 33.87800323 -37.66967118 31.20108248 -34.5 28.5 C-29.66018601 24.38601592 -24.76749318 20.34462734 -19.83984375 16.3359375 C-15.99436798 13.17280888 -12.19992545 9.95092861 -8.4140625 6.71679688 C-5.67307374 4.38251343 -2.91151414 2.11874041 0 0 Z " fill="#000000" transform="translate(290,206)"/>
<path d="M0 0 C4.86172998 3.74034881 8.37073326 7.76473991 12 12.6875 C13.14492066 14.21422652 14.2907856 15.74024528 15.4375 17.265625 C16.02402344 18.04873047 16.61054687 18.83183594 17.21484375 19.63867188 C19.52314826 22.69199808 21.88450167 25.70154423 24.25024414 28.71044922 C29.64219799 35.57320951 34.92413937 42.50757805 40.0625 49.5625 C40.58650391 50.27591553 41.11050781 50.98933105 41.65039062 51.72436523 C45.11879624 56.53044022 48.68862399 61.5179178 51 67 C50.67 67.66 50.34 68.32 50 69 C49.10861328 67.51113281 49.10861328 67.51113281 48.19921875 65.9921875 C43.27764279 57.88114851 38.07504174 50.27209881 32.1171875 42.89453125 C28.3082953 38.17525137 24.66219446 33.33337491 21 28.5 C15.83550047 21.69091871 10.63886852 14.91423294 5.2734375 8.26171875 C3.1678424 5.6230616 1.35390862 3.10208733 0 0 Z " fill="#000000" transform="translate(752,212)"/>
<path d="M0 0 C3.23048748 1.4199255 5.38242488 3.13619387 7.86328125 5.6328125 C8.58580078 6.35726562 9.30832031 7.08171875 10.05273438 7.828125 C10.79845703 8.58609375 11.54417969 9.3440625 12.3125 10.125 C13.04662109 10.85976562 13.78074219 11.59453125 14.53710938 12.3515625 C19.22310952 17.07498412 23.67471241 21.94589709 28 27 C28.8891545 28.02098003 29.77846491 29.04182431 30.66796875 30.0625 C53.54827773 56.73845714 72.87681639 86.47991964 85.08984375 119.55859375 C85.93597658 121.96078994 85.93597658 121.96078994 87 124 C87.50158552 127.54571915 87.75884391 131.1199635 88.0625 134.6875 C88.19664307 136.23642944 88.19664307 136.23642944 88.33349609 137.81665039 C88.99450536 145.90425613 89.23063712 153.88926141 89 162 C86.98060221 158.97090331 86.75019452 158.33479649 86.69140625 154.9296875 C86.65720581 153.7216748 86.65720581 153.7216748 86.62231445 152.48925781 C86.60257568 151.62655273 86.58283691 150.76384766 86.5625 149.875 C85.95696464 134.21859404 83.21815859 120.39574807 77 106 C76.70464355 105.31437988 76.40928711 104.62875977 76.10498047 103.92236328 C66.41919043 81.7841479 52.98398313 61.87053014 38 43 C37.26136719 42.06671875 36.52273438 41.1334375 35.76171875 40.171875 C30.9607144 34.20259783 25.90493878 28.5238683 20.6953125 22.9140625 C18.222608 20.24067473 15.79373619 17.53463167 13.375 14.8125 C9.6202708 10.61643735 5.68809628 6.64021673 1.65234375 2.71484375 C0 1 0 1 0 0 Z " fill="#000000" transform="translate(759,213)"/>
<path d="M0 0 C4.87645431 2.17656867 8.09439047 5.7532732 11.8125 9.5 C12.52865479 10.21961914 13.24480957 10.93923828 13.98266602 11.68066406 C26.5275079 24.48521273 26.5275079 24.48521273 28 32 C25.85730346 29.95128138 24.09593416 27.84781422 22.375 25.4375 C16.35951965 17.34771608 9.53621077 10.34593308 1.87109375 3.8125 C1.25363281 3.214375 0.63617187 2.61625 0 2 C0 1.34 0 0.68 0 0 Z " fill="#000000" transform="translate(860,224)"/>
<path d="M0 0 C0 3.91744233 -1.24052879 4.84374302 -3.6875 7.875 C-17.7587278 25.93700511 -29.69884814 46.35570048 -34 69 C-34.33 69 -34.66 69 -35 69 C-37.20062309 47.43389371 -18.21594137 23.19087749 -6 7 C-4.04594726 4.61997153 -2.03979314 2.30810673 0 0 Z " fill="#000000" transform="translate(265,232)"/>
<path d="M0 0 C0 3.91827483 -1.19676379 4.70054859 -3.75 7.625 C-31.24467871 40.57565402 -52.80817326 85.03844791 -49 129 C-47.52563888 138.17587618 -45.05682747 147.22947633 -42 156 C-42.66 156 -43.32 156 -44 156 C-56.7039138 121.50360166 -51.33570486 87.64128418 -36.26391602 54.52319336 C-26.8816369 34.52338691 -14.89819092 16.3288119 0 0 Z " fill="#000000" transform="translate(283,238)"/>
<path d="M0 0 C1.51013672 1.09634766 1.51013672 1.09634766 3.05078125 2.21484375 C10.35618576 7.57044651 16.72643261 13.50763179 23.03125 20 C26.08055533 23.12749265 29.32034258 25.97223777 32.70703125 28.73046875 C33.34705078 29.35888672 33.34705078 29.35888672 34 30 C34 30.66 34 31.32 34 32 C34.82951172 32.32677734 34.82951172 32.32677734 35.67578125 32.66015625 C38.738599 34.4257806 40.86401231 36.82516624 43.1875 39.4375 C43.67017334 39.97173584 44.15284668 40.50597168 44.65014648 41.05639648 C48.49424199 45.34611083 52.13306135 49.78784808 55.74609375 54.2734375 C58.92954502 58.12447561 62.29889855 61.79077003 65.68359375 65.46484375 C67.56729323 67.52643053 69.38636708 69.61720066 71.1875 71.75 C74.12246739 75.1624262 77.30530756 78.26480427 80.53295898 81.39526367 C103.41358644 103.71440334 106.74684924 136.4188488 107.25840759 167.19793701 C107.91888951 220.58757641 107.91888951 220.58757641 96 242 C95 240 95 240 95.63671875 237.69921875 C95.98347656 236.70535156 96.33023438 235.71148437 96.6875 234.6875 C109.52514833 194.35329693 110.99277952 138.95827914 93 100 C91.23613754 97.0793497 89.25802601 94.55030857 87 92 C86.49210938 91.37480469 85.98421875 90.74960937 85.4609375 90.10546875 C83.29689818 87.46977984 81.23930172 85.19021419 78.5625 83.0625 C75.6633647 80.72904964 73.42242592 78.15194685 71.01171875 75.328125 C68.76775717 72.73122965 66.45063778 70.21144798 64.125 67.6875 C60.8927002 64.14990052 57.79943674 60.55882744 54.8125 56.8125 C45.40484421 45.21245139 34.75425504 34.65843807 24.25 24.0625 C23.39954102 23.19898926 22.54908203 22.33547852 21.67285156 21.44580078 C0.76259929 0.5073241 -18.52085493 -10.70045532 -48 -12 C-48 -12.33 -48 -12.66 -48 -13 C-30.4849881 -16.1276807 -13.85749512 -10.71282906 0 0 Z " fill="#000000" transform="translate(733,254)"/>
<path d="M0 0 C4.71214654 1.36160362 8.61531042 3.3838332 12.6875 6.0625 C13.30197998 6.46533203 13.91645996 6.86816406 14.54956055 7.28320312 C24.74449293 14.07188164 33.27135925 22.06506573 41.81176758 30.796875 C45.86593979 34.93357125 50.00810562 38.84147233 54.44458008 42.56787109 C56 44 56 44 57 46 C52.68907711 44.60609187 50.30968165 42.63177001 47.19140625 39.37890625 C46.28664551 38.44852539 45.38188477 37.51814453 44.44970703 36.55957031 C43.9784137 36.06960571 43.50712036 35.57964111 43.02154541 35.0748291 C30.72503124 22.32925169 18.19403533 12.02750965 3.0078125 2.8984375 C2.01523437 2.27195313 1.02265625 1.64546875 0 1 C0 0.67 0 0.34 0 0 Z " fill="#000000" transform="translate(747,245)"/>
<path d="M0 0 C5.66476855 3.99866016 10.74017569 8.44977156 15.78881836 13.18579102 C19.84495545 16.97566599 24.00882204 20.60672501 28.25 24.1875 C35.87410793 30.65447974 42.8338293 37.5243621 49.3359375 45.125 C50.90295118 46.89064921 52.5375958 48.50186806 54.25 50.125 C57.77745321 53.59594938 60.85670214 57.38569788 63.9375 61.25 C64.43475586 61.86504395 64.93201172 62.48008789 65.44433594 63.11376953 C69 67.64108287 69 67.64108287 69 71 C64.13091896 65.75176921 59.33674231 60.52735982 54.9375 54.875 C51.61611234 50.64290927 48.00157386 46.89636877 44.1484375 43.1484375 C42.17151914 41.17151914 40.36203745 39.13747876 38.5625 37 C32.88970163 30.41433752 26.1934984 24.93314557 19.4375 19.5 C14.9787093 15.89891162 10.93801289 12.05584721 6.94921875 7.9453125 C4.89736771 5.82500463 4.89736771 5.82500463 1.9375 3.5625 C1.298125 3.046875 0.65875 2.53125 0 2 C0 1.34 0 0.68 0 0 Z " fill="#000000" transform="translate(750,264)"/>
<path d="M0 0 C12.30831335 1.69928207 23.17380326 11.87084649 32 20 C32.80050781 20.72960937 33.60101562 21.45921875 34.42578125 22.2109375 C41.03573609 28.52737747 46.50702883 35.7215727 52 43 C52.44069824 43.57991699 52.88139648 44.15983398 53.33544922 44.75732422 C59.21422405 52.51939956 64.70132676 60.49765493 70.0625 68.625 C75.39514138 76.70088558 80.87230272 84.5046093 87 92 C87.66128906 92.8146875 88.32257813 93.629375 89.00390625 94.46875 C96.30712123 103.08506828 105.04340842 109.68891146 114.6875 115.4921875 C116.75912709 116.84294436 118.34257512 118.17901345 120 120 C95.34024147 112.41238199 79.04813205 86.83253273 65.640625 66.4140625 C48.21069483 39.89649357 29.18999038 15.09615853 0 1 C0 0.67 0 0.34 0 0 Z " fill="#000000" transform="translate(707,281)"/>
<path d="M0 0 C16.79860962 5.81490333 31.51239882 24.32917028 42 38 C41.01 38 40.02 38 39 38 C37.0102585 35.89971731 35.1916538 33.80441918 33.375 31.5625 C32.28492855 30.26102668 31.19247387 28.96154581 30.09765625 27.6640625 C29.56414551 27.03016602 29.03063477 26.39626953 28.48095703 25.74316406 C22.03791165 18.15936188 14.63804643 12.24056297 6.67504883 6.33959961 C5.95728271 5.8060083 5.2395166 5.27241699 4.5 4.72265625 C3.8503125 4.24578369 3.200625 3.76891113 2.53125 3.27758789 C1 2 1 2 0 0 Z " fill="#000000" transform="translate(788,283)"/>
<path d="M0 0 C6.36851462 4.63164699 11.1819092 10.83284378 16 17 C9.43097693 14.14071541 4.06963599 7.76531766 0 2 C0 1.34 0 0.68 0 0 Z " fill="#000000" transform="translate(689,288)"/>
<path d="M0 0 C16.15963793 1.75393126 32.53453266 1.92444253 48.71386719 0.29516602 C52.6335898 -0.03892036 56.53125675 -0.03142684 60.4621582 0.0144043 C61.22334961 0.01891602 61.98454102 0.02342773 62.76879883 0.02807617 C64.60412116 0.03961908 66.43940173 0.05754051 68.2746582 0.0769043 C68.2746582 0.4069043 68.2746582 0.7369043 68.2746582 1.0769043 C63.70799162 1.51311396 59.14056213 1.93984645 54.57226562 2.35864258 C53.02548645 2.50168805 51.4789248 2.64711 49.93261719 2.79516602 C31.13318582 4.59140678 13.27958911 3.68842121 -5.46801758 1.78588867 C-29.61048988 -0.64198438 -51.48823101 -0.52055617 -74.7253418 7.0769043 C-75.73854492 7.40432617 -76.75174805 7.73174805 -77.7956543 8.0690918 C-79.77783545 8.72153387 -81.75292147 9.39552273 -83.7253418 10.0769043 C-66.91455103 -9.45078195 -21.54111147 -2.44647396 0 0 Z " fill="#000000" transform="translate(411.725341796875,303.923095703125)"/>
<path d="M0 0 C0.66 0.33 1.32 0.66 2 1 C1.51140503 1.7875769 1.51140503 1.7875769 1.01293945 2.59106445 C-19.20312151 35.40998638 -33.5382373 68.46511518 -37 107 C-37.33 107 -37.66 107 -38 107 C-39.79452709 68.78321942 -20.13029287 31.22506806 0 0 Z " fill="#000000" transform="translate(236,304)"/>
<path d="M0 0 C3.66685642 1.64043577 6.67925416 3.89332853 9.875 6.3125 C10.40512695 6.71331787 10.93525391 7.11413574 11.48144531 7.52709961 C15.07415933 10.25696605 18.58136065 13.05617167 22 16 C18.47281346 16 17.78827032 15.35971336 15.05859375 13.26171875 C14.31029297 12.68873047 13.56199219 12.11574219 12.79101562 11.52539062 C12.01435547 10.91888672 11.23769531 10.31238281 10.4375 9.6875 C9.65697266 9.09259766 8.87644531 8.49769531 8.07226562 7.88476562 C2.26883892 3.40325837 2.26883892 3.40325837 0 0 Z " fill="#000000" transform="translate(705,305)"/>
<path d="M0 0 C2.93200474 2.85276137 5.64315404 5.65079784 8 9 C7.67 9.66 7.34 10.32 7 11 C5.82750647 9.54634731 4.66216184 8.08692581 3.5 6.625 C2.52546875 5.40683594 2.52546875 5.40683594 1.53125 4.1640625 C0 2 0 2 0 0 Z " fill="#000000" transform="translate(723,308)"/>
<path d="M0 0 C4.62746744 3.60217923 8.15228947 7.39997758 11.6875 12.0625 C12.15994141 12.67416016 12.63238281 13.28582031 13.11914062 13.91601562 C15.43832435 16.92477431 17.72919872 19.95454411 20 23 C19.67 23.66 19.34 24.32 19 25 C18.60208252 24.51644043 18.20416504 24.03288086 17.79418945 23.53466797 C15.96714964 21.3146222 14.13982679 19.09480956 12.3125 16.875 C11.68666016 16.11445313 11.06082031 15.35390625 10.41601562 14.5703125 C9.80048828 13.82265625 9.18496094 13.075 8.55078125 12.3046875 C7.94830566 11.57088867 7.34583008 10.83708984 6.72509766 10.08105469 C5.63789239 8.76951525 4.53997764 7.46671111 3.42724609 6.17675781 C0 2.19945988 0 2.19945988 0 0 Z " fill="#000000" transform="translate(691,316)"/>
<path d="M0 0 C5.76774721 4.89004655 11.39476999 9.92484204 17 15 C12.73691745 15 10.88307448 12.52272041 7.9375 9.75 C7.39544922 9.25886719 6.85339844 8.76773437 6.29492188 8.26171875 C3.56458324 5.73050246 1.34570418 3.51053264 0 0 Z " fill="#000000" transform="translate(735,326)"/>
<path d="M0 0 C1.16683864 3.50051591 0.78760241 3.98566635 -0.4375 7.3125 C-3.95322026 19.44740542 -3.72442483 35.24518107 1 47 C-3.77994407 43.14391067 -4.05635545 36.73942715 -5 31 C-5.94001436 20.63135673 -4.77379407 9.33059751 0 0 Z " fill="#000000" transform="translate(247,331)"/>
<path d="M0 0 C1.15757812 0.37382812 2.31515625 0.74765625 3.5078125 1.1328125 C24.27266187 8.54532374 24.27266187 8.54532374 27 14 C22.95676902 12.45718818 19.13102665 10.59835482 15.25 8.6875 C7.09236918 4.79918848 -1.24582767 2.18459366 -10 0 C-10.96808594 -0.2475 -11.93617188 -0.495 -12.93359375 -0.75 C-19.52196962 -2.12696099 -26.16813273 -2.22884662 -32.875 -2.3125 C-34.1736499 -2.33920776 -34.1736499 -2.33920776 -35.49853516 -2.36645508 C-53.82959062 -2.34524991 -72.1252778 1.83764123 -90 5.5 C-101.5883768 7.87434702 -113.15563573 10.14602453 -124.875 11.78125 C-126.20253296 11.96995667 -126.20253296 11.96995667 -127.55688477 12.16247559 C-133.08518664 12.89548825 -138.42358127 13.10983855 -144 13 C-144 12.67 -144 12.34 -144 12 C-143.2778833 11.90090332 -142.5557666 11.80180664 -141.81176758 11.69970703 C-119.70116051 8.61482313 -97.79972332 4.61544827 -75.88012695 0.39111328 C-74.75782684 0.17546722 -73.63552673 -0.04017883 -72.47921753 -0.26235962 C-70.36691495 -0.66889596 -68.2550837 -1.07789223 -66.14382935 -1.48983765 C-44.94410039 -5.57741311 -20.75355929 -6.71309635 0 0 Z " fill="#000000" transform="translate(579,338)"/>
<path d="M0 0 C5.00900798 4.44514216 8.21789834 9.75175413 11.6875 15.4375 C12.26822266 16.36626953 12.84894531 17.29503906 13.44726562 18.25195312 C16.2017529 22.72600471 18.67070263 26.86290887 20 32 C17.79949637 29.94364279 16.24861766 27.95639975 14.765625 25.33984375 C14.35940918 24.63287354 13.95319336 23.92590332 13.53466797 23.19750977 C13.11072754 22.45170654 12.68678711 21.70590332 12.25 20.9375 C8.82839459 14.99719534 5.27881772 9.29159155 1.1796875 3.78515625 C0 2 0 2 0 0 Z " fill="#000000" transform="translate(711,341)"/>
<path d="M0 0 C1.03705078 0.13317627 2.07410156 0.26635254 3.14257812 0.40356445 C10.90675034 1.43705182 18.51834062 2.79922716 26.125 4.6875 C26.125 5.0175 26.125 5.3475 26.125 5.6875 C20.98350674 5.34551994 15.8962271 4.84926803 10.8203125 3.953125 C1.17459591 2.27317436 -8.19814668 1.39318661 -18 1.375 C-19.03012207 1.36976318 -20.06024414 1.36452637 -21.12158203 1.35913086 C-26.87030927 1.41179878 -32.13251551 1.95766694 -37.71435547 3.35864258 C-40.07757915 3.71833323 -41.61911871 3.41926712 -43.875 2.6875 C-28.82456901 -1.30086421 -15.50021891 -2.0588598 0 0 Z " fill="#000000" transform="translate(363.875,344.3125)"/>
<path d="M0 0 C14.20491029 11.88574127 14.20491029 11.88574127 17 18 C16.67 18.66 16.34 19.32 16 20 C15.5153125 19.3709375 15.030625 18.741875 14.53125 18.09375 C10.46124472 12.89666633 6.28412237 8.11279177 1.46875 3.59375 C0 2 0 2 0 0 Z " fill="#000000" transform="translate(828,349)"/>
<path d="M0 0 C1.26459439 3.79378317 0.54453826 5.75281596 -0.375 9.625 C-2.93990061 20.48387828 -3.12962199 30.96710873 -3.0625 42.0625 C-3.05747414 43.51497241 -3.05291316 44.96744651 -3.04882812 46.41992188 C-3.03791042 49.94665015 -3.02070586 53.47331402 -3 57 C-3.33 57 -3.66 57 -4 57 C-5.27920712 50.20533374 -5.23396681 43.52053591 -5.25 36.625 C-5.25167175 35.95381134 -5.25334351 35.28262268 -5.25506592 34.59109497 C-5.25685461 22.63387679 -4.77146192 11.14032631 0 0 Z " fill="#000000" transform="translate(226,353)"/>
<path d="M0 0 C2.67998244 3.30117042 5.22173645 6.66155854 7.6875 10.125 C10.46210005 13.97861118 13.35498655 17.63936361 16.4375 21.25 C30.62059127 38.44088476 40.16000192 59.41954727 39 82 C38.48282708 86.17465711 37.74517846 90.29832075 37 94.4375 C35.60497044 102.81973467 34.61258309 110.99519591 34.625 119.5 C34.62371094 120.31654053 34.62242187 121.13308105 34.62109375 121.97436523 C34.72695527 127.811786 35.69892476 133.31659191 37 139 C34.585306 135.92944316 33.48010078 133.81186694 32.8125 129.9375 C32.65394531 129.08027344 32.49539063 128.22304688 32.33203125 127.33984375 C31.5708877 119.68363515 31.9551352 112.46555196 33.1640625 104.8671875 C33.27950912 104.14002029 33.39495575 103.41285309 33.51390076 102.66365051 C33.99927147 99.65037312 34.49229916 96.63894444 35.01464844 93.63183594 C39.09796057 69.86966075 33.22928523 49.12537807 19.74316406 29.13720703 C16.97915438 25.30019899 14.01083961 21.64495534 11 18 C9.51805155 16.16891455 8.03866863 14.33574816 6.5625 12.5 C5.94503906 11.7471875 5.32757812 10.994375 4.69140625 10.21875 C0 4.06466513 0 4.06466513 0 0 Z " fill="#000000" transform="translate(674,357)"/>
<path d="M0 0 C2.44048067 2.25136925 4.08535303 4.57127377 5.77734375 7.421875 C6.29103516 8.28296875 6.80472656 9.1440625 7.33398438 10.03125 C7.86314453 10.9284375 8.39230469 11.825625 8.9375 12.75 C9.46279297 13.63171875 9.98808594 14.5134375 10.52929688 15.421875 C11.55434405 17.14610954 12.57452512 18.87324806 13.58935547 20.60351562 C14.48206239 22.12009769 15.38599095 23.63017751 16.30517578 25.13085938 C17.26291355 26.71954343 18.14125899 28.3556939 19 30 C18.67 30.66 18.34 31.32 18 32 C15.74995558 28.41200868 13.50825882 24.81897649 11.27392578 21.22119141 C10.51379245 19.99974468 9.75145452 18.7796669 8.98681641 17.56103516 C7.88371936 15.80212031 6.7888272 14.0383214 5.6953125 12.2734375 C5.03547363 11.21560059 4.37563477 10.15776367 3.69580078 9.06787109 C2.04922995 6.08906185 0.96057279 3.25740905 0 0 Z " fill="#000000" transform="translate(701,362)"/>
<path d="M0 0 C-3.12415743 2.08277162 -4.31168091 2.32936679 -7.9296875 2.6328125 C-8.89003906 2.71660156 -9.85039062 2.80039062 -10.83984375 2.88671875 C-12.34224609 3.00466797 -12.34224609 3.00466797 -13.875 3.125 C-14.86886719 3.21136719 -15.86273438 3.29773438 -16.88671875 3.38671875 C-21.27378384 3.75671219 -25.59497321 4.04647279 -30 4 C-27.01279024 2.31178233 -24.59983582 1.66934735 -21.19140625 1.3671875 C-20.27939453 1.28339844 -19.36738281 1.19960938 -18.42773438 1.11328125 C-17.48220703 1.03464844 -16.53667969 0.95601563 -15.5625 0.875 C-14.62083984 0.78863281 -13.67917969 0.70226562 -12.70898438 0.61328125 C-8.45445965 0.23496783 -4.27399443 -0.04476384 0 0 Z " fill="#000000" transform="translate(442,373)"/>
<path d="M0 0 C2.50276394 3.03496087 3.91612312 5.93195283 5.25 9.625 C5.60578125 10.58664062 5.9615625 11.54828125 6.328125 12.5390625 C7 15 7 15 6 17 C5.18167278 15.10667466 4.37057732 13.21022267 3.5625 11.3125 C3.11003906 10.25675781 2.65757812 9.20101563 2.19140625 8.11328125 C1.14552545 5.38027471 0.46479252 2.87957663 0 0 Z " fill="#000000" transform="translate(331,383)"/>
<path d="M0 0 C4.875 3.75 4.875 3.75 6 6 C6.66 5.67 7.32 5.34 8 5 C8.86343824 7.12124966 9.71550648 9.24713072 10.5625 11.375 C11.27599609 13.15003906 11.27599609 13.15003906 12.00390625 14.9609375 C13 18 13 18 12 20 C10.37276975 17.41804795 8.74814795 14.83451657 7.125 12.25 C6.66480469 11.52039063 6.20460938 10.79078125 5.73046875 10.0390625 C5.28574219 9.33007812 4.84101563 8.62109375 4.3828125 7.890625 C3.97434082 7.24125977 3.56586914 6.59189453 3.14501953 5.92285156 C1.99408567 3.99006796 0.98041811 2.02383498 0 0 Z " fill="#000000" transform="translate(339,383)"/>
<path d="M0 0 C0.33 0.66 0.66 1.32 1 2 C0.23264702 3.30625736 -0.56407678 4.59533504 -1.375 5.875 C-2.64262727 8.26739214 -2.64262727 8.26739214 -3 11 C-1.3224698 15.45629622 1.2453928 19.13916884 4 23 C4.815683 24.24792527 5.62906372 25.49736796 6.4375 26.75 C6.953125 27.4925 7.46875 28.235 8 29 C3.36816162 27.49146548 1.64569726 23.81580494 -0.75 19.875 C-1.16121094 19.21628906 -1.57242188 18.55757813 -1.99609375 17.87890625 C-3.00619115 16.25805229 -4.00428938 14.62973148 -5 13 C-5.79780561 14.99755909 -6.58792425 16.99818885 -7.375 19 C-7.81585938 20.11375 -8.25671875 21.2275 -8.7109375 22.375 C-15.2778814 40.84204224 -12.26828819 57.90821739 -4.125 75.3125 C-3.69445312 76.15425781 -3.26390625 76.99601562 -2.8203125 77.86328125 C-2 80 -2 80 -3 83 C-12.79393338 63.15623475 -18.59817681 45.05749758 -11.75830078 23.12890625 C-8.86428806 15.00405405 -4.49719931 7.32721258 0 0 Z " fill="#000000" transform="translate(246,386)"/>
<path d="M0 0 C2.8358562 2.46886304 4.19600752 5.0994988 5.75 8.5 C6.42289062 9.93859375 6.42289062 9.93859375 7.109375 11.40625 C8 14 8 14 7 17 C5.82866942 14.54379149 4.66278278 12.08525083 3.5 9.625 C3.16613281 8.92632812 2.83226562 8.22765625 2.48828125 7.5078125 C0 2.2265625 0 2.2265625 0 0 Z " fill="#000000" transform="translate(322,387)"/>
<path d="M0 0 C4.2742558 1.5830577 6.26531794 4.50568404 9 8 C8.67 8.66 8.34 9.32 8 10 C6.66370254 8.52351062 5.33103329 7.0437367 4 5.5625 C3.2575 4.73878906 2.515 3.91507812 1.75 3.06640625 C0 1 0 1 0 0 Z " fill="#000000" transform="translate(311,391)"/>
<path d="M0 0 C0 3.89977036 -1.19135425 4.63688842 -3.8125 7.4375 C-6.37791705 10.19917847 -8.79217846 12.94248057 -11 16 C-10.52773919 11.31112485 -8.69435491 9.12631183 -5.5 5.75 C-4.6853125 4.87859375 -3.870625 4.0071875 -3.03125 3.109375 C-1 1 -1 1 0 0 Z " fill="#000000" transform="translate(508,391)"/>
<path d="M0 0 C2.03819846 2.03819846 2.67841059 3.29417798 3.6875 5.9375 C3.95949219 6.62714844 4.23148437 7.31679688 4.51171875 8.02734375 C5 10 5 10 4 13 C3.32404685 11.58774074 2.65959941 10.16997095 2 8.75 C1.62875 7.96109375 1.2575 7.1721875 0.875 6.359375 C0 4 0 4 0 0 Z " fill="#000000" transform="translate(341,392)"/>
<path d="M0 0 C0.66 0.33 1.32 0.66 2 1 C-3 6 -8 11 -13 16 C-11.57699887 11.31095412 -8.84303666 8.48389525 -5.375 5.1875 C-4.859375 4.68541016 -4.34375 4.18332031 -3.8125 3.66601562 C-2.54840846 2.43703773 -1.27511194 1.21753999 0 0 Z " fill="#000000" transform="translate(529,392)"/>
<path d="M0 0 C0.66 0.33 1.32 0.66 2 1 C-1.96 4.465 -1.96 4.465 -6 8 C-6.66 7.67 -7.32 7.34 -8 7 C-5.36 4.69 -2.72 2.38 0 0 Z " fill="#000000" transform="translate(544,393)"/>
<path d="M0 0 C8.39157849 0.44166203 15.92832028 6.1238069 21.53125 12.0703125 C26.20195076 18.20681829 28.15302649 25.14577476 28.0625 32.75 C28.05347656 33.73484375 28.04445313 34.7196875 28.03515625 35.734375 C28.02355469 36.48203125 28.01195312 37.2296875 28 38 C27.67 38 27.34 38 27 38 C26.84144531 36.865625 26.68289063 35.73125 26.51953125 34.5625 C24.88897261 23.71736107 23.04365895 15.62309302 14.1796875 8.453125 C9.72016207 5.48010805 4.85459752 3.24794171 0 1 C0 0.67 0 0.34 0 0 Z " fill="#000000" transform="translate(584,393)"/>
<path d="M0 0 C2.9667903 2.57360122 4.49144778 5.51704221 6.25 9 C6.79140625 10.051875 7.3328125 11.10375 7.890625 12.1875 C9 15 9 15 8 18 C6.66180502 15.3773768 5.3292849 12.75213401 4 10.125 C3.6184375 9.37863281 3.236875 8.63226563 2.84375 7.86328125 C2.4828125 7.14785156 2.121875 6.43242187 1.75 5.6953125 C1.41484375 5.03547363 1.0796875 4.37563477 0.734375 3.69580078 C0 2 0 2 0 0 Z " fill="#000000" transform="translate(720,394)"/>
<path d="M0 0 C0.66 0.33 1.32 0.66 2 1 C-4.73044185 6.53467807 -10.12400696 10.96446748 -19 12 C-16.6685835 9.38000426 -14.35020514 8.04425893 -11.1875 6.5625 C-7.20088074 4.636315 -3.60557177 2.56185363 0 0 Z " fill="#000000" transform="translate(551,396)"/>
<path d="M0 0 C2.30874711 2.16614803 4.05290181 4.39206608 5.75 7.0625 C6.19859375 7.75472656 6.6471875 8.44695312 7.109375 9.16015625 C7.40328125 9.76730469 7.6971875 10.37445313 8 11 C7.67 11.66 7.34 12.32 7 13 C6.01364163 11.58833114 5.03618745 10.17043816 4.0625 8.75 C3.51722656 7.96109375 2.97195313 7.1721875 2.41015625 6.359375 C1.10377559 4.17363007 0.45019489 2.4846199 0 0 Z " fill="#000000" transform="translate(355,397)"/>
<path d="M0 0 C0.33 0 0.66 0 1 0 C1.33 5.94 1.66 11.88 2 18 C-1.14042059 14.85957941 -0.97273699 11.77699586 -1.125 7.4375 C-1.02610758 4.71795858 -0.82121194 2.56628731 0 0 Z " fill="#000000" transform="translate(491,397)"/>
<path d="M0 0 C0.33 0.66 0.66 1.32 1 2 C-0.61992165 2.86375896 -2.24611861 3.71575854 -3.875 4.5625 C-5.23238281 5.27599609 -5.23238281 5.27599609 -6.6171875 6.00390625 C-7.40351562 6.33261719 -8.18984375 6.66132813 -9 7 C-9.66 6.67 -10.32 6.34 -11 6 C-7.37 4.02 -3.74 2.04 0 0 Z " fill="#000000" transform="translate(569,396)"/>
<path d="M0 0 C1.76239535 2.64359302 2.79461748 4.80718132 3.91015625 7.74609375 C4.26013672 8.66583984 4.61011719 9.58558594 4.97070312 10.53320312 C5.51114258 11.97083008 5.51114258 11.97083008 6.0625 13.4375 C6.42666016 14.39205078 6.79082031 15.34660156 7.16601562 16.33007812 C9.65719368 22.91028782 11.13679537 27.88664067 11 35 C10.67 35 10.34 35 10 35 C9.86464844 34.35417969 9.72929688 33.70835937 9.58984375 33.04296875 C7.80964325 25.25059409 5.23980303 17.94109721 2.33764648 10.50073242 C1.88627319 9.32474487 1.88627319 9.32474487 1.42578125 8.125 C1.01453003 7.07699219 1.01453003 7.07699219 0.5949707 6.0078125 C0 4 0 4 0 0 Z " fill="#000000" transform="translate(734,400)"/>
<path d="M0 0 C2.00124361 0.32578384 4.00102872 0.66055205 6 1 C6.886875 1.103125 7.77375 1.20625 8.6875 1.3125 C11.64293405 2.19114255 12.48358021 3.36621827 14 6 C14 6.66 14 7.32 14 8 C10.35839192 9.21386936 9.66834531 8.6674695 6.3125 7.0625 C5.50425781 6.68222656 4.69601562 6.30195313 3.86328125 5.91015625 C2.94095703 5.45962891 2.94095703 5.45962891 2 5 C5 4 5 4 7 4 C4.69 3.01 2.38 2.02 0 1 C0 0.67 0 0.34 0 0 Z " fill="#000000" transform="translate(296,401)"/>
<path d="M0 0 C0.70253906 -0.01224609 1.40507813 -0.02449219 2.12890625 -0.03710938 C5.87870405 -0.04774207 8.69408966 0.10260281 11.875 2.1875 C11.070625 2.15269531 10.26625 2.11789062 9.4375 2.08203125 C-2.90205101 1.79789685 -14.92327777 3.47753073 -27.125 5.1875 C-24.20424476 2.88590512 -22.49028168 1.81185211 -18.75 1.5625 C-16.23169337 1.37562919 -13.83115943 1.13343664 -11.34375 0.67578125 C-7.55110336 0.10044044 -3.82604656 0.00354921 0 0 Z " fill="#000000" transform="translate(575.125,401.8125)"/>
<path d="M0 0 C1.66171502 2.49257253 2.9387679 4.79516513 4.1875 7.5 C4.55230469 8.2734375 4.91710937 9.046875 5.29296875 9.84375 C6 12 6 12 5 15 C4.15733289 13.25447527 3.32619962 11.5033792 2.5 9.75 C2.0359375 8.77546875 1.571875 7.8009375 1.09375 6.796875 C0 4 0 4 0 0 Z " fill="#000000" transform="translate(365,403)"/>
<path d="M0 0 C2.51954654 2.25890379 3.87332733 4.417897 5.25 7.5 C5.60578125 8.2734375 5.9615625 9.046875 6.328125 9.84375 C7 12 7 12 6 15 C4.99539469 12.87717331 3.99644398 10.75166979 3 8.625 C2.443125 7.44164062 1.88625 6.25828125 1.3125 5.0390625 C0 2 0 2 0 0 Z " fill="#000000" transform="translate(688,405)"/>
<path d="M0 0 C2.24956302 2.24956302 3.00510965 4.06323263 4.1875 7 C4.55230469 7.886875 4.91710937 8.77375 5.29296875 9.6875 C6 12 6 12 5 14 C4.1533966 12.61217515 3.32324661 11.21430603 2.5 9.8125 C2.0359375 9.03519531 1.571875 8.25789063 1.09375 7.45703125 C-0.10729647 4.75896614 -0.20741043 2.9193018 0 0 Z " fill="#000000" transform="translate(374,408)"/>
<path d="M0 0 C3.30020448 3.30020448 4.37351588 7.74583471 6 12.0625 C6.35578125 12.97966797 6.7115625 13.89683594 7.078125 14.84179688 C10.01201369 22.56514937 12.29412965 29.98302864 12.25 38.3125 C12.25515625 39.29863281 12.2603125 40.28476562 12.265625 41.30078125 C11.99794009 44.02093232 11.39206204 45.67437254 10 48 C10.03480469 47.29617188 10.06960938 46.59234375 10.10546875 45.8671875 C10.46609888 32.71277435 7.05065605 21.41487079 2.33764648 9.30834961 C2.03673096 8.53241455 1.73581543 7.75647949 1.42578125 6.95703125 C1.15161377 6.26585205 0.87744629 5.57467285 0.5949707 4.86254883 C0 3 0 3 0 0 Z " fill="#000000" transform="translate(813,409)"/>
<path d="M0 0 C6.27 0 12.54 0 19 0 C19 0.33 19 0.66 19 1 C12.61773055 1.82351864 6.43255401 2.12086218 0 2 C0 1.34 0 0.68 0 0 Z " fill="#000000" transform="translate(570,412)"/>
<path d="M0 0 C7.51516214 5.98810865 10.45644145 14.99064037 12.375 24.0625 C12.57996094 24.98289062 12.78492188 25.90328125 12.99609375 26.8515625 C15.03518407 36.83607371 14.51972448 45.85629909 12.5625 55.8125 C12.29119263 57.24940186 12.29119263 57.24940186 12.0144043 58.71533203 C10.78407276 65.16602484 9.45361142 71.5905775 7.98828125 77.9921875 C4.73966205 94.25597533 6.09103377 110.84961921 8.0625 127.1875 C8.21098389 128.43974365 8.35946777 129.6919873 8.51245117 130.98217773 C10.27612081 144.76122413 12.86997135 158.40290839 15.375 172.0625 C15.72729172 173.99222656 15.72729172 173.99222656 16.08670044 175.9609375 C17.43423273 183.34216956 18.79377302 190.72107998 20.168046 198.09738159 C20.80588919 201.52117667 21.44118104 204.94539706 22.07006836 208.37084961 C26.57714661 232.90646113 31.51956495 257.34617785 39.375 281.0625 C39.66117187 281.93535645 39.94734375 282.80821289 40.2421875 283.70751953 C44.93338975 297.73852456 51.06929302 310.79734935 57.80529785 323.92913818 C62.99887571 334.059026 67.71047562 344.24302983 71.9375 354.8125 C79.66868218 374.02066207 88.19217005 391.48924409 108.125 400.3125 C127.02259431 407.20523956 149.1267182 404.22193111 168.86709595 403.36877441 C170.67293916 403.29100232 172.47890894 403.21610345 174.28500366 403.14440918 C183.95753551 402.75100844 193.50771524 402.06401366 203.08984375 400.65234375 C203.885578 400.53602097 204.68131226 400.41969818 205.50115967 400.29985046 C233.91385052 395.80925732 252.89850008 379.01663527 272.375 359.0625 C272.375 363.34826087 269.86207625 365.2304529 267.0625 368.1875 C266.51706543 368.76790039 265.97163086 369.34830078 265.40966797 369.94628906 C238.40634831 398.19230852 205.10115442 405.07158881 167.50537109 405.98779297 C159.4614445 406.14516268 151.41653982 406.20654071 143.37124634 406.23773193 C141.38537173 406.24586305 139.39950683 406.25693643 137.41366577 406.27105713 C134.58818981 406.28903169 131.76302677 406.29295296 128.9375 406.29296875 C127.66994621 406.30367149 127.66994621 406.30367149 126.37678528 406.31459045 C112.35255447 406.26178157 99.47169122 400.73136532 89.375 391.0625 C78.15211602 379.5290196 72.75054402 363.75971903 66.58709717 349.20144653 C63.6443269 342.25164337 60.68398982 335.34768182 57.25 328.625 C56.93772461 328.00979492 56.62544922 327.39458984 56.30371094 326.76074219 C54.97077776 324.14819316 53.62744758 321.54184065 52.26074219 318.94677734 C46.12450358 307.20733167 41.42193337 295.1504337 37.1875 282.625 C36.82730774 281.57922791 36.82730774 281.57922791 36.45983887 280.5123291 C27.15525295 253.31443166 22.39866538 224.68693094 17.17407227 196.49139404 C16.52442953 192.99813825 15.86597208 189.50656686 15.2077198 186.014925 C12.25169232 170.31889397 9.33660613 154.62343155 6.98046875 138.82421875 C6.82604813 137.78989212 6.6716275 136.75556549 6.51252747 135.68989563 C2.6405316 108.62933105 3.27151038 83.28610159 9.73095703 56.82666016 C13.1443514 42.17675453 12.47263924 22.17296354 4.375 9.0625 C3.40298869 7.70862711 2.41615841 6.36394802 1.375 5.0625 C1.375 4.4025 1.375 3.7425 1.375 3.0625 C-3.45894548 0.56218337 -7.12680668 -0.31668575 -12.625 0.0625 C-16.93163278 1.49804426 -18.34385236 4.01581948 -20.375 7.875 C-29.50137249 27.75847611 -21.3467685 57.45650373 -14.34448242 77.21337891 C-11.40321557 85.07433508 -7.77195117 92.65434305 -4.14428711 100.21728516 C-3.67514893 101.20647949 -3.20601074 102.19567383 -2.72265625 103.21484375 C-2.29476807 104.10163818 -1.86687988 104.98843262 -1.42602539 105.90209961 C-1.16168701 106.61503174 -0.89734863 107.32796387 -0.625 108.0625 C-0.955 108.7225 -1.285 109.3825 -1.625 110.0625 C-16.48910673 83.97124882 -25.71576622 56.04265067 -26 25.875 C-26.01393799 24.93124512 -26.02787598 23.98749023 -26.04223633 23.01513672 C-25.98225365 14.25454997 -24.28092326 6.91134295 -18.15625 0.44140625 C-12.78991049 -4.39103724 -5.8544636 -3.65256357 0 0 Z " fill="#000000" transform="translate(275.625,420.9375)"/>
<path d="M0 0 C8.37231888 12.55847832 4.23398278 33.91955825 1.62158203 47.93701172 C0.07157924 55.5750066 -1.73486563 63.16053468 -3.57446289 70.73339844 C-3.87215576 71.96219727 -4.16984863 73.19099609 -4.4765625 74.45703125 C-4.74549316 75.54991455 -5.01442383 76.64279785 -5.29150391 77.76879883 C-6.3694084 82.68474164 -7.05963171 87.59564914 -7.31640625 92.62109375 C-7.35830078 93.41064453 -7.40019531 94.20019531 -7.44335938 95.01367188 C-7.48267578 95.81353516 -7.52199219 96.61339844 -7.5625 97.4375 C-7.60568359 98.26443359 -7.64886719 99.09136719 -7.69335938 99.94335938 C-7.79838033 101.96209549 -7.89958559 103.98102951 -8 106 C-8.33 106 -8.66 106 -9 106 C-12.6781645 91.74711258 -7.24678237 75.8946851 -3.91241455 62.03878784 C-1.11156461 50.38345811 1.30128942 38.98354566 2 27 C2.05800781 26.10667969 2.11601563 25.21335937 2.17578125 24.29296875 C2.43138018 16.18106601 1.04292507 8.02679833 0 0 Z " fill="#000000" transform="translate(695,420)"/>
<path d="M0 0 C9.40721214 7.00537075 17.71808518 17.97530038 19.73486328 29.75146484 C21.77640702 47.06510923 19.90876125 64.12198819 16 81 C15.81808105 81.82483887 15.63616211 82.64967773 15.44873047 83.49951172 C10.87830473 104.12156673 3.87345976 123.79721509 -4.80078125 143.03125 C-9.08497884 152.6357467 -12.46357074 161.90180079 -9.23828125 172.50390625 C-8.29193232 174.4751548 -7.25345055 176.21122161 -6 178 C-5.4225 178.9075 -4.845 179.815 -4.25 180.75 C0.04667801 185.04667801 5.59882484 187.66282892 11.72265625 188.07421875 C22.69691221 187.71656718 31.55757789 183.03095076 41.04541016 177.93652344 C48.60908766 173.93134508 55.38939901 171.27713912 64.0625 172.375 C65.00222656 172.48585938 65.94195312 172.59671875 66.91015625 172.7109375 C67.59980469 172.80632812 68.28945313 172.90171875 69 173 C69 173.33 69 173.66 69 174 C67.67548828 174.03867187 67.67548828 174.03867187 66.32421875 174.078125 C54.67600713 174.62863124 46.17048466 177.84566101 35.9375 183.0625 C25.87036239 188.19055459 16.02572497 192.28882021 4.55078125 189.37890625 C-3.26980885 186.39141428 -8.05655463 180.64346593 -11.4375 173.125 C-15.8578804 160.59102093 -10.46100644 150.25363403 -5.49902344 138.72094727 C8.62926682 105.82213535 27.16835061 59.05986828 15 23 C12.34557618 16.42868249 7.9296804 11.2573169 3.30249023 5.98413086 C0 2.19691726 0 2.19691726 0 0 Z " fill="#000000" transform="translate(393,424)"/>
<path d="M0 0 C3.98117777 3.55574849 7.76324034 6.94389838 10.8359375 11.33203125 C10.5059375 11.99203125 10.1759375 12.65203125 9.8359375 13.33203125 C9.2378125 12.52765625 8.6396875 11.72328125 8.0234375 10.89453125 C-0.81571053 0.30752909 -15.3392347 -10.90816171 -29.1640625 -13.66796875 C-40.69973541 -14.69975181 -49.16651188 -11.99356517 -58.11328125 -4.68359375 C-61.43301036 -1.42077428 -63.84302322 2.31799862 -66.1640625 6.33203125 C-66.4940625 5.34203125 -66.8240625 4.35203125 -67.1640625 3.33203125 C-61.87014602 -6.08934554 -53.13663251 -12.07559832 -43.1640625 -15.66796875 C-26.98205366 -20.14384354 -11.73254294 -10.06012493 0 0 Z " fill="#000000" transform="translate(379.1640625,443.66796875)"/>
<path d="M0 0 C4.81431676 4.43472916 9.06784638 9.14467227 13.14111328 14.26171875 C17.89237378 20.17182328 22.29820424 23.28229326 29.82861328 24.76171875 C38.7260622 25.32389049 46.50646727 24.75855253 55.12158203 22.3203125 C57.83360588 21.76068853 59.25772574 21.83521751 61.82861328 22.76171875 C53.82460487 26.08805991 46.61603675 27.16898789 38.01611328 27.19921875 C36.69220581 27.2137207 36.69220581 27.2137207 35.34155273 27.22851562 C27.18555423 27.12415813 20.71465472 25.19825653 14.60205078 19.625 C12.56329796 17.48296235 10.76829248 15.22141472 8.95361328 12.88671875 C-0.50923281 0.77209621 -12.80399183 -7.03594307 -27.17138672 -12.23828125 C-27.84556641 -12.48578125 -28.51974609 -12.73328125 -29.21435547 -12.98828125 C-41.39829484 -16.72919227 -54.16037827 -14.14488413 -65.33544922 -8.6953125 C-72.03711884 -4.98818639 -77.68837793 -0.56898424 -83.17138672 4.76171875 C-83.17138672 1.76171875 -83.17138672 1.76171875 -81.55419922 -0.0703125 C-56.84204308 -21.74689237 -25.02109047 -21.94347452 0 0 Z " fill="#000000" transform="translate(574.17138671875,444.23828125)"/>
<path d="M0 0 C4.35535069 1.16142685 6.64619703 2.07699505 9 6 C5.88802644 4.50164236 2.91164984 2.86022073 0 1 C0 0.67 0 0.34 0 0 Z " fill="#000000" transform="translate(597,429)"/>
<path d="M0 0 C4.15864624 2.94872652 6.68497546 6.15496551 9.125 10.5625 C9.64320313 11.49122925 9.64320313 11.49122925 10.171875 12.4387207 C15.03890276 21.46106629 16.53364909 29.7816082 16 40 C15.67 40 15.34 40 15 40 C14.92523438 39.16339844 14.85046875 38.32679688 14.7734375 37.46484375 C13.34373404 24.80776311 9.8910885 13.37623693 1.3203125 3.63671875 C0 2 0 2 0 0 Z " fill="#000000" transform="translate(265,435)"/>
<path d="M0 0 C7.33315023 5.68276607 11.58450594 14.28556616 14.375 22.9375 C14.60058594 23.61941406 14.82617188 24.30132812 15.05859375 25.00390625 C21.91475341 49.92250034 10.223415 77.48459901 -1.66015625 98.9140625 C-7.43903816 108.92703645 -14.08173488 118.41582676 -20.625 127.9375 C-21.61915236 129.39668408 -22.612714 130.85627094 -23.60546875 132.31640625 C-25.78071178 135.50728859 -27.97511893 138.68430162 -30.1796875 141.85498047 C-31.82352612 144.22355199 -33.4582062 146.59835017 -35.09375 148.97265625 C-41.28688626 157.93074853 -47.51597311 166.6772137 -54.625 174.9375 C-55.17929687 175.63617187 -55.73359375 176.33484375 -56.3046875 177.0546875 C-62.45368497 184.61589492 -71.65335843 193.35416502 -81.625 194.9375 C-90.77116313 195.74818264 -99.4473035 195.49786775 -107.625 190.9375 C-109.92578125 188.796875 -109.92578125 188.796875 -111.625 186.9375 C-108.64221993 187.91850322 -105.67574278 188.91873681 -102.73046875 190.0078125 C-93.91870382 193.19278778 -86.85601996 194.37569499 -77.9375 191.03125 C-58.89901871 182.0265629 -47.17469652 162.3905686 -35.78125 145.5625 C-33.13045486 141.65640044 -30.40025456 137.81810852 -27.625 134 C-6.42592865 104.63435921 19.41549997 67.12051443 13.375 28.9375 C10.80978895 18.06525837 6.01304518 7.20429762 -3.625 0.9375 C-11.94862504 -3.52158485 -21.46370315 -3.2308016 -30.5078125 -1.18359375 C-49.70017129 4.78692443 -64.84145339 17.69450184 -78.625 31.9375 C-73.95509223 17.82788561 -55.54699368 7.4401993 -42.86425781 0.859375 C-29.19003527 -5.91285632 -13.52542407 -8.45713877 0 0 Z " fill="#000000" transform="translate(808.625,446.0625)"/>
<path d="M0 0 C0.33 0 0.66 0 1 0 C2.99625397 16.2397958 0.02045252 28.54612717 -7 43 C-8.37360581 38.87918258 -6.7615008 36.35554518 -5.125 32.5625 C-2.74747406 26.93351735 -0.9454111 22.14963139 -0.68359375 16.015625 C-0.64169922 15.08105469 -0.59980469 14.14648438 -0.55664062 13.18359375 C-0.49766602 11.73146484 -0.49766602 11.73146484 -0.4375 10.25 C-0.37272461 8.77466797 -0.37272461 8.77466797 -0.30664062 7.26953125 C-0.20077948 4.84648725 -0.09869829 2.4233446 0 0 Z " fill="#000000" transform="translate(726,447)"/>
<path d="M0 0 C2.29742761 1.98655457 3.66006256 3.69180367 5.1796875 6.296875 C5.59863281 7.00328125 6.01757812 7.7096875 6.44921875 8.4375 C6.90361328 9.23414063 6.90361328 9.23414063 7.3671875 10.046875 C3.98702115 8.92015288 3.47731932 8.15449571 1.3671875 5.421875 C-6.91579369 -4.26765017 -18.76881504 -9.28019292 -31.2578125 -10.828125 C-47.46444374 -11.73365311 -59.23726909 -2.109541 -71.6328125 7.046875 C-72.2928125 6.716875 -72.9528125 6.386875 -73.6328125 6.046875 C-49.06517386 -13.64686113 -27.43012247 -20.34875554 0 0 Z " fill="#000000" transform="translate(383.6328125,462.953125)"/>
<path d="M0 0 C5.03807727 2.75472496 9.80439365 4.30987584 15.55981445 4.8515625 C15.55981445 5.1815625 15.55981445 5.5115625 15.55981445 5.8515625 C7.18113876 7.04851617 1.68120911 3.76332015 -5.4753418 -0.10546875 C-17.64528544 -6.61014605 -29.61684708 -7.64228274 -42.9362793 -4.32421875 C-51.37459588 -1.49263202 -59.11171972 3.13663463 -66.37768555 8.2265625 C-70.29695953 10.96856407 -73.74865853 11.99855759 -78.44018555 12.8515625 C-78.44018555 12.1915625 -78.44018555 11.5315625 -78.44018555 10.8515625 C-77.68995117 10.57183594 -76.9397168 10.29210937 -76.16674805 10.00390625 C-70.81560441 7.90792933 -66.01980696 5.76774525 -61.37768555 2.3515625 C-42.14165565 -11.79801718 -20.11501809 -11.25853787 0 0 Z " fill="#000000" transform="translate(560.440185546875,458.1484375)"/>
<path d="M0 0 C0.33 0 0.66 0 1 0 C1.08636719 0.6290625 1.17273438 1.258125 1.26171875 1.90625 C2.31117789 8.29928551 4.23003312 12.76796263 8 18 C8.66 18.99 9.32 19.98 10 21 C5.19550004 19.11251787 2.81049174 15.82360642 0.75 11.1875 C-0.16302789 7.30713147 -0.13721888 3.97934752 0 0 Z " fill="#000000" transform="translate(337,457)"/>
<path d="M0 0 C0.99 0.33 1.98 0.66 3 1 C2.01 1.495 2.01 1.495 1 2 C0.67 2.99 0.34 3.98 0 5 C0.99 5 1.98 5 3 5 C3 5.66 3 6.32 3 7 C1.35 6.67 -0.3 6.34 -2 6 C-1.125 1.125 -1.125 1.125 0 0 Z " fill="#000000" transform="translate(358,459)"/>
<path d="M0 0 C2.375 -0.125 2.375 -0.125 5 0 C5.66 0.66 6.32 1.32 7 2 C6.625 4.125 6.625 4.125 6 6 C4.1875 6.6875 4.1875 6.6875 2 7 C0.1875 5.8125 0.1875 5.8125 -1 4 C-0.6875 1.8125 -0.6875 1.8125 0 0 Z M1 2 C1.33 2.99 1.66 3.98 2 5 C3.32 4.67 4.64 4.34 6 4 C5.67 3.34 5.34 2.68 5 2 C3.68 2 2.36 2 1 2 Z " fill="#000000" transform="translate(533,459)"/>
<path d="M0 0 C1.65625 1.09765625 1.65625 1.09765625 3.96875 3.09765625 C1.10669097 3.09765625 -0.69169813 2.6232425 -3.40625 1.84765625 C-11.15689098 0.27719109 -18.17026175 2.84585567 -24.87109375 6.75390625 C-27.34715868 8.45177934 -29.69985786 10.2065945 -32.03125 12.09765625 C-33.00449219 12.86335938 -33.97773437 13.6290625 -34.98046875 14.41796875 C-38.22070845 17.13948249 -40.81908859 20.19878228 -43.40625 23.53515625 C-43.87595215 24.13626221 -44.3456543 24.73736816 -44.82958984 25.35668945 C-51.22665022 33.7385569 -58.43381612 43.50985813 -58.3984375 54.37109375 C-57.94628777 57.72854601 -56.82743256 60.47070737 -55.53125 63.59765625 C-52.86773744 70.14989716 -51.49471137 74.9270514 -53.98828125 81.6953125 C-57.31243409 88.86070863 -61.81765192 93.30430916 -68.03125 98.09765625 C-68.69125 97.76765625 -69.35125 97.43765625 -70.03125 97.09765625 C-69.35578125 96.54078125 -68.6803125 95.98390625 -67.984375 95.41015625 C-61.4239262 89.79774918 -57.74483712 85.35265675 -55.09375 77.22265625 C-54.98485711 71.77801155 -56.97909756 66.80059958 -58.9375 61.76953125 C-61.64560309 54.59807307 -61.62350239 49.78475529 -58.55859375 42.6875 C-50.11938441 25.38393796 -36.13156704 7.38957061 -17.71875 0.28515625 C-12.12238654 -1.39956216 -5.49245577 -2.43991785 0 0 Z " fill="#000000" transform="translate(795.03125,459.90234375)"/>
<path d="M0 0 C0.33 0 0.66 0 1 0 C1.226875 1.216875 1.45375 2.43375 1.6875 3.6875 C2.73549336 7.97819747 4.65493834 10.0837924 8 13 C8.33 13.66 8.66 14.32 9 15 C5.04250518 14.09542976 3.32031334 12.452798 1.125 9.1875 C-0.53692606 6.34514048 -1.02260257 5.36164114 -0.8125 2 C-0.544375 1.34 -0.27625 0.68 0 0 Z " fill="#000000" transform="translate(512,461)"/>
<path d="M0 0 C6.87521202 6.1545399 8.53583726 15.35086868 9.15625 24.23828125 C9.88800395 44.33102504 3.43401906 63.64121618 -8 80 C-9.485 80.99 -9.485 80.99 -11 82 C-9.72367293 78.57438632 -8.22812491 75.63072063 -6.25 72.5625 C4.37111445 55.0077974 9.59388892 33.55213629 5.16796875 13.16796875 C4.24224532 10.35612717 3.21528339 7.69668724 2 5 C1.32934801 3.33493299 0.66152583 1.66871381 0 0 Z " fill="#000000" transform="translate(800,465)"/>
<path d="M0 0 C0.66 0 1.32 0 2 0 C2.56203125 0.75667969 3.1240625 1.51335937 3.703125 2.29296875 C6.44345357 5.52264171 8.87970949 6.64827508 12.75 8.3125 C13.92046875 8.82425781 15.0909375 9.33601563 16.296875 9.86328125 C17.18890625 10.23839844 18.0809375 10.61351562 19 11 C16 12 16 12 13.22265625 10.9609375 C12.17980469 10.43757813 11.13695312 9.91421875 10.0625 9.375 C9.02222656 8.86710937 7.98195313 8.35921875 6.91015625 7.8359375 C3.82656484 5.89058453 2.05888943 3.98662997 0 1 C0 0.67 0 0.34 0 0 Z " fill="#000000" transform="translate(320,467)"/>
<path d="M0 0 C-1.76505435 0.86604534 -3.53728074 1.71748642 -5.3125 2.5625 C-6.79169922 3.27599609 -6.79169922 3.27599609 -8.30078125 4.00390625 C-11 5 -11 5 -14 4 C-12.42466914 3.13116294 -10.83935491 2.28040932 -9.25 1.4375 C-8.36828125 0.96183594 -7.4865625 0.48617188 -6.578125 -0.00390625 C-3.79298812 -1.07998186 -2.73019786 -1.06528748 0 0 Z " fill="#000000" transform="translate(568,469)"/>
<path d="M0 0 C0.33 0 0.66 0 1 0 C0.746935 5.80784171 0.42964203 9.81644919 -4 14 C-11.50418178 19.62813633 -21.00291099 19.81563487 -30 19 C-35.57633683 17.82307815 -40.94011235 15.87270034 -46.3125 14 C-47.74614248 13.51643977 -49.18038587 13.03465731 -50.61523438 12.5546875 C-54.08397098 11.39014451 -57.54402587 10.20196677 -61 9 C-60.67 8.34 -60.34 7.68 -60 7 C-56.87414159 7.9764408 -53.74946643 8.95661507 -50.625 9.9375 C-49.73554688 10.21529297 -48.84609375 10.49308594 -47.9296875 10.77929688 C-47.07890625 11.04677734 -46.228125 11.31425781 -45.3515625 11.58984375 C-44.17327881 11.95903931 -44.17327881 11.95903931 -42.97119141 12.33569336 C-41 13 -41 13 -39 14 C-39.350625 13.401875 -39.70125 12.80375 -40.0625 12.1875 C-41 10 -41 10 -40 7 C-39.74347656 7.55429687 -39.48695313 8.10859375 -39.22265625 8.6796875 C-36.91509034 13.05378679 -36.91509034 13.05378679 -33.0859375 16.01171875 C-24.71935067 18.15660737 -15.12068434 17.464289 -7.6171875 13.08984375 C-2.18852136 9.43139483 -1.24804329 6.24021647 0 0 Z " fill="#000000" transform="translate(551,462)"/>
<path d="M0 0 C0.721875 0.763125 1.44375 1.52625 2.1875 2.3125 C4.69790967 4.71133591 6.96808302 6.35410221 10 8 C9.01 8.495 9.01 8.495 8 9 C5 7.9375 5 7.9375 2 6 C0.625 2.8125 0.625 2.8125 0 0 Z " fill="#000000" transform="translate(305,474)"/>
<path d="M0 0 C0.495 0.99 0.495 0.99 1 2 C0.37996094 2.09796875 -0.24007812 2.1959375 -0.87890625 2.296875 C-6.45616853 3.23859614 -11.71890153 4.51652411 -17.125 6.1875 C-25.47789849 8.49678026 -33.46535455 8.3978312 -42 7 C-42.66 6.34 -43.32 5.68 -44 5 C-43.09290283 5.00785522 -43.09290283 5.00785522 -42.16748047 5.01586914 C-39.40333106 5.03677358 -36.63919835 5.04970279 -33.875 5.0625 C-32.92367188 5.07087891 -31.97234375 5.07925781 -30.9921875 5.08789062 C-26.20981513 5.10449608 -21.70228431 5.00537055 -17 4 C-17 3.34 -17 2.68 -17 2 C-15.39125 1.7834375 -15.39125 1.7834375 -13.75 1.5625 C-10.25736036 1.11343371 -10.25736036 1.11343371 -7.9375 0.4375 C-5.2772859 -0.16319351 -2.71615848 -0.06173087 0 0 Z " fill="#000000" transform="translate(383,474)"/>
<path d="M0 0 C2.74689008 0.86743897 5.45233561 1.7618046 8.09545898 2.91137695 C14.83745021 5.8364029 21.46629862 7.21434937 28.6875 8.4375 C44.07344339 11.24918286 57.94437609 15.07211984 71 24 C71.99 25.485 71.99 25.485 73 27 C69.60516338 25.7439697 66.80151522 24.27534364 63.8125 22.25 C50.91937484 14.50660704 35.88276561 11.89632642 21.27807617 9.26757812 C13.95498428 7.88531777 7.2856678 6.15706543 1 2 C0.67 1.34 0.34 0.68 0 0 Z " fill="#000000" transform="translate(500,488)"/>
<path d="M0 0 C0 0.66 0 1.32 0 2 C-0.89460938 2.03738281 -1.78921875 2.07476562 -2.7109375 2.11328125 C-9.40161957 2.47706034 -15.47034004 3.08157367 -21.81640625 5.28125 C-24.18874963 6.06212868 -26.54518797 6.55131731 -29 7 C-21.34164803 0.00759168 -9.77109688 -0.17448387 0 0 Z " fill="#000000" transform="translate(336,492)"/>
<path d="M0 0 C6.36316898 0.90902414 11.6008083 3.03988624 17.3125 5.875 C18.00601563 6.21466797 18.69953125 6.55433594 19.4140625 6.90429688 C23.21488966 8.84161169 26.15318288 10.73604001 29 14 C23.15291165 11.79536013 17.57907271 8.97588018 11.94921875 6.27734375 C8.00682784 4.3961714 4.0910053 2.5425102 0 1 C0 0.67 0 0.34 0 0 Z " fill="#000000" transform="translate(592,492)"/>
<path d="M0 0 C0 3 0 3 -1.44140625 4.578125 C-10.55713145 11.76326383 -24.07700417 19.72260581 -36 19 C-32.59870371 17.16146146 -29.0988199 15.97725807 -25.4375 14.75 C-15.71481411 11.30360095 -7.55506705 7.05139592 0 0 Z " fill="#000000" transform="translate(380,495)"/>
<path d="M0 0 C4.44622341 3.85339362 5.75611017 7.55542982 6.3359375 13.3671875 C6.4183042 20.76371758 6.01720858 25.72311159 2 32 C1.67 31.34 1.34 30.68 1 30 C1.474375 28.845 1.94875 27.69 2.4375 26.5 C5.16037832 19.51632134 4.79601393 13.4054579 2 6.5 C1.62875 5.6853125 1.2575 4.870625 0.875 4.03125 C0 2 0 2 0 0 Z " fill="#000000" transform="translate(760,510)"/>
<path d="M0 0 C8.69328664 7.90298785 18.00702106 20.62625582 18.625 32.6875 C18.09947465 39.33600677 15.27289545 46.6580487 10.7578125 51.61328125 C6.6741345 54.83484945 1.87014059 57.21705679 -3 59 C-3.99 58.67 -4.98 58.34 -6 58 C-5.19175781 57.62488281 -4.38351562 57.24976563 -3.55078125 56.86328125 C4.42860252 53.04203233 10.52922724 49.5882811 14.25390625 41.2734375 C16.86037609 33.33121003 15.04973699 27.15016928 11.4375 19.9375 C8.47235123 14.25228929 5.13223234 8.93307385 1.25 3.8203125 C0 2 0 2 0 0 Z " fill="#000000" transform="translate(466,551)"/>
<path d="M0 0 C0 3 0 3 -1.5625 6.625 C-3.36002339 11.28144156 -3.33009817 15.20277926 -2 20 C-0.23222186 23.13638057 1.46729967 25.46729967 4 28 C0.87018088 27.66466224 -0.00061159 26.99933599 -2.1875 24.625 C-5.72900906 19.49591791 -5.77196312 14.04430696 -5 8 C-3.67373117 5.03212568 -2.0306965 2.53111814 0 0 Z " fill="#000000" transform="translate(372,568)"/>
<path d="M0 0 C4.17654521 3.6702973 6.88740174 7.76206985 9.80078125 12.4765625 C11.97630527 15.99412385 14.2494803 19.44446876 16.52197266 22.89990234 C59.24553327 87.99352431 59.24553327 87.99352431 58 113 C56.55374767 110.2924634 55.57781929 107.76604714 54.84375 104.7890625 C49.96604147 85.9309316 42.2241538 68.57264 32 52 C31.49404297 51.1740332 30.98808594 50.34806641 30.46679688 49.49707031 C24.52830607 39.82571646 18.48550474 30.22486223 12.25 20.7421875 C11.85759628 20.14506958 11.46519257 19.54795166 11.06089783 18.93273926 C9.14290624 16.01726686 7.2181111 13.10658396 5.28344727 10.20214844 C4.59307373 9.15833008 3.9027002 8.11451172 3.19140625 7.0390625 C2.26630249 5.65001709 2.26630249 5.65001709 1.32250977 4.23291016 C0 2 0 2 0 0 Z " fill="#000000" transform="translate(485,581)"/>
<path d="M0 0 C0.66 0.33 1.32 0.66 2 1 C1.28714844 1.82242188 0.57429688 2.64484375 -0.16015625 3.4921875 C-18.24124053 24.49661769 -34.70818687 50.03979762 -33 79 C-32.57447244 82.67295643 -31.9677679 86.29914427 -31.3125 89.9375 C-31.048927 91.43398071 -31.048927 91.43398071 -30.7800293 92.96069336 C-29.32814845 100.88320109 -27.36028947 108.5742155 -25.05078125 116.28515625 C-24.13279317 119.53053418 -23.4734397 122.66511153 -23 126 C-25.31766333 123.18540712 -26.55501662 120.83802414 -27.5 117.32421875 C-27.7460498 116.42171387 -27.99209961 115.51920898 -28.24560547 114.58935547 C-28.49455566 113.63174316 -28.74350586 112.67413086 -29 111.6875 C-29.26055176 110.69637207 -29.52110352 109.70524414 -29.78955078 108.68408203 C-30.5399775 105.79266303 -31.27219048 102.89718168 -32 100 C-32.1865918 99.28247559 -32.37318359 98.56495117 -32.56542969 97.82568359 C-39.00419541 72.719638 -33.5909019 49.19302907 -21 27 C-15.04629057 17.24072762 -7.50198233 8.58591895 0 0 Z " fill="#000000" transform="translate(364,587)"/>
<path d="M0 0 C5.32891345 7.99337018 4.67728289 19.99165797 5.25 29.3125 C5.2942511 30.02598602 5.3385022 30.73947205 5.38409424 31.47457886 C6.87953303 56.80265237 5.51041397 83.62468325 -2 108 C-3.00949022 104.82479321 -2.94668506 102.63819248 -2.29296875 99.38671875 C-2.11926758 98.48083008 -1.94556641 97.57494141 -1.76660156 96.64160156 C-1.57549805 95.66674805 -1.38439453 94.69189453 -1.1875 93.6875 C3.74239305 66.76400489 4.45616896 39.5438412 1.27001953 12.35888672 C0.79901415 8.24419054 0.40291048 4.12183383 0 0 Z " fill="#000000" transform="translate(559,606)"/>
<path d="M0 0 C0.33 0 0.66 0 1 0 C0.88437394 1.39664108 0.757008 2.79231199 0.625 4.1875 C0.55539062 4.96480469 0.48578125 5.74210938 0.4140625 6.54296875 C-0.03999525 9.23733032 -0.95518199 11.4832717 -2 14 C-0.65639404 13.96193237 -0.65639404 13.96193237 0.71435547 13.9230957 C10.38659915 13.76995497 19.57631816 14.64902449 29.125 16.1875 C29.83834503 16.29882263 30.55169006 16.41014526 31.28665161 16.52484131 C44.14703235 18.53398995 57.16534376 20.70094913 69.53564453 24.85058594 C77.02584053 27.33556529 82.01876882 26.55335563 89.64013672 24.59082031 C114.48278681 18.37009655 144.67616477 17.14295665 170 21 C170.99 21.66 171.98 22.32 173 23 C172.0242527 22.99000725 172.0242527 22.99000725 171.02879333 22.97981262 C164.13179577 22.91237785 157.23489474 22.86776179 150.33764648 22.83520508 C147.7786884 22.82030786 145.21975495 22.79998326 142.66088867 22.77368164 C113.94867896 22.361463 113.94867896 22.361463 86.125 28.625 C75.65851208 31.49223562 66.08171934 27.11233197 56.08056641 23.92773438 C38.22705583 18.55102331 16.62038164 14.87941535 -2 16 C-4.15602694 18.33749166 -4.15602694 18.33749166 -5 21 C-6.33201473 18.33597054 -5.69751146 17.4413616 -4.78515625 14.6484375 C-4.51123047 13.79765625 -4.23730469 12.946875 -3.95507812 12.0703125 C-3.66052734 11.18085937 -3.36597656 10.29140625 -3.0625 9.375 C-2.77181641 8.4778125 -2.48113281 7.580625 -2.18164062 6.65625 C-1.46100166 4.43526435 -0.73354395 2.21675021 0 0 Z " fill="#000000" transform="translate(343,637)"/>
<path d="M0 0 C0.33 0 0.66 0 1 0 C1.26775123 6.98291488 0.65631841 13.27865636 -1 20.0625 C-1.22075195 20.96863037 -1.44150391 21.87476074 -1.66894531 22.80834961 C-5.32402649 36.91552863 -11.60988611 48.87157783 -21 60 C-21.66257812 60.79019531 -22.32515625 61.58039062 -23.0078125 62.39453125 C-32.53364174 73.31482599 -42.89407977 83.90150356 -54.296875 92.86328125 C-56.84541628 94.87780738 -59.31421628 96.95780457 -61.77734375 99.07446289 C-67.76123035 104.21268552 -73.88447278 109.08463427 -80.26269531 113.73095703 C-82.21066843 115.15388624 -84.14783641 116.59100047 -86.0859375 118.02734375 C-106.14869321 132.8079677 -127.40191762 146.11484919 -150.1875 156.3125 C-150.84065186 156.60874268 -151.49380371 156.90498535 -152.16674805 157.21020508 C-156.62792451 159.12402516 -156.62792451 159.12402516 -160 158 C-159.14994385 157.59797363 -158.2998877 157.19594727 -157.42407227 156.78173828 C-134.19976985 145.84604352 -134.19976985 145.84604352 -112 133 C-110.99453125 132.36320313 -109.9890625 131.72640625 -108.953125 131.0703125 C-90.60159404 119.11701801 -73.2625845 105.66967328 -56.65625 91.41357422 C-54.95723635 89.96350213 -53.24571849 88.52940966 -51.53125 87.09765625 C-22.21454147 62.50800808 -6.17352776 38.20884825 0 0 Z " fill="#000000" transform="translate(699,640)"/>
<path d="M0 0 C4.81663875 1.60554625 6.58965184 5.70099547 9 10 C16.61508907 27.82689433 12.27120608 46.37606857 5.52392578 63.734375 C-1.44134256 80.85694195 -10.90505669 96.79169357 -20.28125 112.67578125 C-24.33132057 119.54117122 -28.29849011 126.4525849 -32.25 133.375 C-32.59085632 133.97192657 -32.93171265 134.56885315 -33.28289795 135.18386841 C-38.54346034 144.4013841 -43.74004469 153.65232999 -48.86425781 162.94628906 C-50.01527144 165.02761464 -51.17434703 167.10424827 -52.3359375 169.1796875 C-59.08803353 181.25412116 -65.64318648 193.4320116 -72.18554688 205.62109375 C-75.11876585 211.08338527 -78.05963169 216.5415547 -81 222 C-84.52548374 228.54577642 -88.04994816 235.09209363 -91.5703125 241.640625 C-92.75520089 243.843754 -93.94009669 246.04687902 -95.125 248.25 C-95.70838135 249.33571289 -96.2917627 250.42142578 -96.89282227 251.54003906 C-99.5775795 256.52993645 -102.27424617 261.51185964 -105.01953125 266.46875 C-120.40065595 294.25177255 -133.2994699 322.48987509 -145 352 C-146.2769059 348.16928229 -145.48026991 346.99531943 -144.0078125 343.28515625 C-143.55462646 342.13394287 -143.10144043 340.98272949 -142.63452148 339.79663086 C-142.13206308 338.5516316 -141.62887261 337.30692758 -141.125 336.0625 C-140.61449318 334.78595726 -140.10415915 333.5093454 -139.59399414 332.23266602 C-133.4061845 316.8263202 -126.64379824 301.8589449 -118.7890625 287.23046875 C-116.72244446 283.37822679 -114.70620641 279.50296058 -112.7109375 275.61328125 C-107.18212066 264.83704977 -101.59304519 254.13020973 -95.5625 243.625 C-90.61834696 235.01209163 -85.96738145 226.27271082 -81.4375 217.4375 C-75.15258472 205.18193524 -68.67246095 193.04957998 -62 181 C-61.58476074 180.2481543 -61.16952148 179.49630859 -60.74169922 178.72167969 C-58.30353616 174.30808497 -55.85257761 169.90178748 -53.39404297 165.49951172 C-51.8332084 162.70094354 -50.27808871 159.89923027 -48.72265625 157.09765625 C-43.07817534 146.95179057 -37.37470504 136.85285293 -31.4375 126.875 C1.45078262 76.53712657 1.45078262 76.53712657 9.49609375 18.9765625 C8.17581214 14.07265938 6.04142425 9.97342492 3.18359375 5.7890625 C1.94935892 3.92345341 0.96383751 2.01650797 0 0 Z " fill="#000000" transform="translate(714,652)"/>
<path d="M0 0 C11.82494087 6.59622552 17.06531959 16.31354883 21 29 C24.38196793 41.69647128 25.19730778 54.34411783 25.1875 67.4375 C25.1862915 69.18232666 25.1862915 69.18232666 25.18505859 70.96240234 C25.10246042 83.07194173 24.21618867 95.09414689 23.28909302 107.16293335 C18.36464448 172.52403204 16.37857591 243.80601062 38.3984375 306.671875 C39 309 39 309 38 312 C23.26150664 273.58228055 18.88003519 229.11436063 18.06738281 188.29980469 C18.02277499 186.1153144 17.96758698 183.9310123 17.90136719 181.74707031 C17.25025659 159.30019696 18.87737715 136.9907793 20.48901367 114.6159668 C21.40093497 101.87524791 22.2006263 89.14446654 22.671875 76.37890625 C22.71743027 75.21651932 22.76298553 74.05413239 22.80992126 72.85652161 C23.51775574 51.36231458 22.21874465 26.15425414 8.09765625 8.640625 C5.54759286 6.03125781 3.0416632 4.02777547 0 2 C0 1.34 0 0.68 0 0 Z " fill="#000000" transform="translate(721,652)"/>
<path d="M0 0 C0.33 0 0.66 0 1 0 C2.51857174 19.36178963 -10.63321073 36.56671433 -22.4375 50.5625 C-24.28125921 52.71746598 -26.13901943 54.85990723 -28 57 C-28.69480469 57.80824219 -29.38960937 58.61648438 -30.10546875 59.44921875 C-35.0422907 65.07356716 -40.28466203 70.38575981 -45.5625 75.6875 C-46.27100098 76.40067383 -46.97950195 77.11384766 -47.70947266 77.84863281 C-52.31060576 82.43590387 -57.06057838 86.78065891 -62 91 C-62.56565674 91.48734619 -63.13131348 91.97469238 -63.71411133 92.47680664 C-65.34817106 93.88379859 -66.9859326 95.28634616 -68.625 96.6875 C-72.24048904 99.77945062 -75.85536293 102.87179685 -79.453125 105.984375 C-99.37706232 123.20125562 -120.06758719 139.4059534 -142 154 C-142.71994141 154.48082031 -143.43988281 154.96164062 -144.18164062 155.45703125 C-154.07209132 162.03932603 -164.12425901 168.32810741 -174.29788208 174.46102905 C-191.3275744 184.72731298 -207.68982433 195.26410165 -223 208 C-223.66 207.67 -224.32 207.34 -225 207 C-211.34179095 194.72656875 -196.38371397 184.74423147 -180.55908203 175.50634766 C-153.86935916 159.79602614 -128.11486214 142.44403396 -104 123 C-103.05898438 122.24203125 -102.11796875 121.4840625 -101.1484375 120.703125 C-94.59184379 115.37471167 -88.13641313 109.92798037 -81.70458984 104.45019531 C-79.97880671 102.98196961 -78.24925728 101.51826467 -76.51953125 100.0546875 C-70.04123975 94.55610152 -63.69444762 88.94784391 -57.47924805 83.15307617 C-54.63602707 80.50258624 -51.76576085 77.90213904 -48.8125 75.375 C-41.27655486 68.84066782 -34.43289332 61.60997593 -28 54 C-27.22914063 53.11828125 -26.45828125 52.2365625 -25.6640625 51.328125 C-12.53641684 36.05966328 -3.17139684 20.11333256 0 0 Z " fill="#000000" transform="translate(707,656)"/>
<path d="M0 0 C4.54039389 0.66852425 8.83799384 1.74470118 13.25 3 C19.14796189 4.63617585 24.87982264 5.71199165 31 6 C31 6.33 31 6.66 31 7 C20.49030339 7.80982251 11.6860282 5.8557169 2 2 C1.34 1.34 0.68 0.68 0 0 Z " fill="#000000" transform="translate(402,685)"/>
<path d="M0 0 C7.90998901 6.29203671 14.51028899 13.9057498 21.17578125 21.46875 C36.0746786 38.3638103 51.2632233 52.08332131 71 63 C68 64 68 64 64.8125 62.4453125 C63.53517185 61.68264893 62.26455164 60.9086658 61 60.125 C60.39027344 59.76664063 59.78054688 59.40828125 59.15234375 59.0390625 C48.48700584 52.55663946 39.59624222 43.90360228 30.87353516 35.0793457 C29.24308232 33.4305043 27.6046362 31.78993899 25.96484375 30.15039062 C20.97281926 25.14143123 16.06816868 20.09312084 11.47119141 14.71411133 C10.05826713 13.06788808 8.60770543 11.4698855 7.12890625 9.8828125 C5.85853516 8.51769531 5.85853516 8.51769531 4.5625 7.125 C3.69753906 6.19945312 2.83257813 5.27390625 1.94140625 4.3203125 C0 2 0 2 0 0 Z " fill="#000000" transform="translate(753,687)"/>
<path d="M0 0 C0.33 0 0.66 0 1 0 C0.97020419 7.59793108 -0.48692471 14.34156692 -2.875 21.5 C-3.13168457 22.27714355 -3.38836914 23.05428711 -3.65283203 23.85498047 C-4.98627788 27.69775183 -6.25484719 30.90964834 -9 34 C-8.23510173 29.25951935 -6.63801888 24.8906085 -5.0625 20.375 C-2.75852047 13.64858018 -0.90412191 7.07709221 0 0 Z " fill="#000000" transform="translate(579,714)"/>
<path d="M0 0 C6.04581949 1.60419754 11.01075408 4.79378231 16.3125 8 C17.29162354 8.58378418 18.27074707 9.16756836 19.27954102 9.76904297 C23.67162522 12.3886062 28.05088442 15.02791168 32.4140625 17.6953125 C50.24125304 28.51996028 69.30740261 36.65753632 88.4934082 44.72192383 C124.91679247 60.03210547 124.91679247 60.03210547 142 69 C141.01 69.495 141.01 69.495 140 70 C137.45092773 69.05053711 137.45092773 69.05053711 134.18359375 67.52734375 C133.58798645 67.25319138 132.99237915 66.979039 132.37872314 66.69657898 C131.07973908 66.09828034 129.78228522 65.49665111 128.48617554 64.89215088 C124.98356935 63.25999097 121.46859669 61.65500149 117.953125 60.05078125 C116.85498726 59.54910431 116.85498726 59.54910431 115.73466492 59.03729248 C107.78113013 55.41918842 99.74109632 52.01300144 91.6875 48.625 C88.91641724 47.45632008 86.14571892 46.28672972 83.375 45.1171875 C82.72432556 44.84266251 82.07365112 44.56813751 81.40325928 44.28529358 C60.29421387 35.37318471 40.01077174 25.5811091 20.49316406 13.53320312 C17.91835797 11.94979319 15.33201637 10.3868272 12.7421875 8.828125 C11.07799961 7.82312427 9.41393236 6.81792375 7.75 5.8125 C6.96866699 5.34271729 6.18733398 4.87293457 5.38232422 4.38891602 C3.57111042 3.28691244 1.78269914 2.14755875 0 1 C0 0.67 0 0.34 0 0 Z " fill="#000000" transform="translate(793,722)"/>
<path d="M0 0 C0.88336837 2.4667645 1.1312406 3.63859372 0.22265625 6.140625 C-0.16019531 6.83671875 -0.54304687 7.5328125 -0.9375 8.25 C-1.31777344 8.95640625 -1.69804688 9.6628125 -2.08984375 10.390625 C-2.39019531 10.92171875 -2.69054687 11.4528125 -3 12 C-4 10 -4 10 -3.22265625 7.6171875 C-2.83980469 6.71226562 -2.45695313 5.80734375 -2.0625 4.875 C-1.68222656 3.96492187 -1.30195312 3.05484375 -0.91015625 2.1171875 C-0.60980469 1.41851563 -0.30945313 0.71984375 0 0 Z " fill="#000000" transform="translate(590,732)"/>
<path d="M0 0 C0.33 0.66 0.66 1.32 1 2 C-5.56641192 14.82119752 -15.77987329 25.08647709 -26 35 C-26.66 34.67 -27.32 34.34 -28 34 C-27.11699219 33.16339844 -26.23398437 32.32679688 -25.32421875 31.46484375 C-15.45111239 21.94814728 -6.9078569 11.90311499 0 0 Z " fill="#000000" transform="translate(585,744)"/>
<path d="M0 0 C1 3 1 3 -0.5546875 6.15234375 C-1.31547571 7.42172985 -2.08984279 8.68304078 -2.875 9.9375 C-3.48432373 10.92979614 -3.48432373 10.92979614 -4.10595703 11.94213867 C-14.20989587 28.13993058 -14.20989587 28.13993058 -20 32 C-18.68157189 29.21583981 -17.20729307 26.76285253 -15.390625 24.27734375 C-14.88563477 23.57859131 -14.38064453 22.87983887 -13.86035156 22.15991211 C-13.32893555 21.42651611 -12.79751953 20.69312012 -12.25 19.9375 C-7.64004296 13.50684415 -3.50156126 7.1106266 0 0 Z " fill="#000000" transform="translate(569,748)"/>
<path d="M0 0 C0.99 0.495 0.99 0.495 2 1 C-41.8549838 25.14427854 -90.02955681 41.30788871 -136.98828125 58.25 C-186.9834005 76.24803122 -186.9834005 76.24803122 -235.4375 97.953125 C-236.283125 98.29859375 -237.12875 98.6440625 -238 99 C-238.66 98.67 -239.32 98.34 -240 98 C-205.39048399 79.99892536 -168.55124205 67.16888023 -131.99169922 53.80322266 C-69.11549517 31.19490507 -69.11549517 31.19490507 -8.19824219 3.87329102 C-7.14668945 3.35049561 -6.09513672 2.8277002 -5.01171875 2.2890625 C-3.62666138 1.58837646 -3.62666138 1.58837646 -2.21362305 0.87353516 C-1.48312744 0.58526855 -0.75263184 0.29700195 0 0 Z " fill="#000000" transform="translate(330,770)"/>
<path d="M0 0 C0.99 0.495 0.99 0.495 2 1 C-4.41570945 14.78036627 -11.07140277 28.34388726 -18.60498047 41.55029297 C-19.50967419 43.13896934 -20.40757164 44.73154278 -21.29736328 46.32861328 C-30.24992832 62.38137259 -40.56128451 77.54362845 -50.82397461 92.77587891 C-56.19152678 100.74721123 -61.53673027 108.7235415 -66.640625 116.8671875 C-67.03465012 117.49442719 -67.42867523 118.12166687 -67.8346405 118.76791382 C-75.44079194 130.97086366 -75.44079194 130.97086366 -78.3125 144.8125 C-78.36857422 146.02873047 -78.36857422 146.02873047 -78.42578125 147.26953125 C-77.40104801 153.84098571 -73.14161112 158.32039967 -68.3125 162.5625 C-67.79010742 163.03212158 -67.26771484 163.50174316 -66.72949219 163.9855957 C-62.44001563 167.77192896 -57.9131493 171.05955459 -53 174 C-53.66 174.33 -54.32 174.66 -55 175 C-65.11550424 169.8230416 -74.91688719 162.37656131 -80 152 C-82.98963432 142.59440888 -78.97477234 133.55420601 -74.75 125.1875 C-69.50602745 115.45490167 -62.98554476 106.47878241 -56.67822266 97.41992188 C-54.01309865 93.57693247 -51.42797495 89.68424077 -48.8515625 85.78125 C-47.55309204 83.83080493 -46.23346094 81.89436001 -44.8984375 79.96875 C-27.50980338 54.75709227 -13.62648913 27.35785717 0 0 Z " fill="#000000" transform="translate(334,774)"/>
<path d="M0 0 C3.42647261 1.7132363 3.8711311 5.85164647 5.0625 9.3125 C9.95341614 23.03587381 15.62803066 36.5665911 23.1015625 49.1015625 C23.39804687 49.72804688 23.69453125 50.35453125 24 51 C23.67 51.66 23.34 52.32 23 53 C14.17762814 39.54155822 0 16.38548661 0 0 Z " fill="#000000" transform="translate(384,825)"/>
<path d="M0 0 C3.84311128 3.57389157 6.66578887 7.26784201 9.3125 11.8125 C9.88943604 12.79101929 9.88943604 12.79101929 10.47802734 13.78930664 C18.78478996 28.07646114 28.35814512 44.56179185 31 61 C28.89280785 58.89280785 28.32902053 57.61635159 27.29296875 54.87109375 C26.96022949 54.01290039 26.62749023 53.15470703 26.28466797 52.27050781 C25.92260254 51.33561523 25.56053711 50.40072266 25.1875 49.4375 C21.68190717 40.63759697 17.73794743 32.15736248 13.375 23.75 C12.8493042 22.7283374 12.3236084 21.7066748 11.78198242 20.65405273 C8.67790344 14.76184997 5.27414661 9.32169222 1.30712891 3.96972656 C0 2 0 2 0 0 Z " fill="#000000" transform="translate(400,834)"/>
<path d="M0 0 C4.95275987 3.09547492 8.11929907 7.50241667 11.6796875 12.078125 C14.28553477 15.35956231 17.00460533 18.52300161 19.75 21.6875 C25.59675467 28.44985383 31.19319459 35.39610636 36.73828125 42.40673828 C38.48393792 44.61110273 40.24142848 46.80593317 42 49 C41.67 49.66 41.34 50.32 41 51 C36.34259772 45.77352606 31.86983886 40.41903656 27.453125 34.98828125 C24.83384728 31.79760059 22.17357436 28.6451354 19.5 25.5 C6.28180739 9.94062882 6.28180739 9.94062882 3.18359375 5.25 C1.10092371 2.73042066 1.10092371 2.73042066 -2.32421875 2.046875 C-24.26644208 1.76705919 -53.52024192 27.40096019 -69 41 C-69.76183594 41.66773438 -70.52367187 42.33546875 -71.30859375 43.0234375 C-82.96291448 53.9112852 -88.2780458 66.66098751 -91 82 C-91.33 82 -91.66 82 -92 82 C-93.24646556 68.60049519 -85.78707901 56.77672051 -78 46.5625 C-72.46581794 39.98080944 -65.9001122 35.04840822 -59 30 C-58.44183594 29.58395508 -57.88367188 29.16791016 -57.30859375 28.73925781 C-15.4227574 -2.47707767 -15.4227574 -2.47707767 0 0 Z " fill="#000000" transform="translate(366,835)"/>
<path d="M0 0 C16.64954927 13.34304828 22.88144891 32.02213758 28.16015625 51.96875 C28.47919922 53.1637915 28.79824219 54.35883301 29.12695312 55.59008789 C29.41505859 56.71922607 29.70316406 57.84836426 30 59.01171875 C30.26031006 60.02645264 30.52062012 61.04118652 30.78881836 62.08666992 C31.21635311 64.74210102 31.10481464 66.27227346 30.22265625 68.78125 C29.98667725 67.89566406 29.75069824 67.01007813 29.50756836 66.09765625 C20.36894357 28.64026513 20.36894357 28.64026513 -3.77734375 -0.21875 C-13.62160812 -5.58834875 -23.06623791 -6.09278585 -33.77734375 -3.21875 C-41.73182625 -0.20399095 -48.02991043 4.25224584 -54.40234375 9.828125 C-56.4869848 11.54246797 -58.31734836 12.71069645 -60.77734375 13.78125 C-46.21955623 -5.10452841 -20.88340014 -15.02720857 0 0 Z " fill="#000000" transform="translate(527.77734375,867.21875)"/>
<path d="M0 0 C1.7551116 3.30743963 2.35497101 5.80709687 2.625 9.5625 C2.69976562 10.51253906 2.77453125 11.46257813 2.8515625 12.44140625 C3.33515624 24.03492993 2.554672 35.50133009 1.75 47.0625 C1.68441895 48.01642639 1.61883789 48.97035278 1.55126953 49.95318604 C-0.41464265 78.35696345 -2.64866618 106.84818876 -7 135 C-7.33 135 -7.66 135 -8 135 C-8.24387296 127.24832371 -7.39691791 119.68799173 -6.51843262 111.99899292 C-2.30612989 74.74578219 0.92038294 37.51268459 0 0 Z " fill="#000000" transform="translate(303,875)"/>
<path d="M0 0 C4.29937077 1.35769603 8.3352455 3.0098996 12.4375 4.875 C50.64876236 21.64842831 103.85205948 18.38493689 142.44018555 4.19848633 C143.25914307 3.89966553 144.07810059 3.60084473 144.921875 3.29296875 C145.99840332 2.88340942 145.99840332 2.88340942 147.09667969 2.46557617 C149 2 149 2 152 3 C116.564435 18.62386275 70.91317945 22.6319778 33 14 C32.31373535 13.85014648 31.6274707 13.70029297 30.92041016 13.54589844 C19.76122086 11.0507747 9.78760726 6.87256435 0 1 C0 0.67 0 0.34 0 0 Z " fill="#000000" transform="translate(376,887)"/>
<path d="M0 0 C0.495 0.99 0.495 0.99 1 2 C-5.63754357 11.05221678 -12.34419792 19.77376561 -20 28 C-21.06638287 29.24668915 -22.12897991 30.49662796 -23.1875 31.75 C-26.61208797 35.67867452 -30.2618099 39.37078854 -33.9375 43.0625 C-34.79734497 43.9292334 -34.79734497 43.9292334 -35.67456055 44.81347656 C-42.63888123 51.75319529 -50.15506278 58.01756484 -57.75 64.25 C-58.49121094 64.86101562 -59.23242188 65.47203125 -59.99609375 66.1015625 C-63.28404162 68.80511748 -66.58009945 71.46400053 -70 74 C-70.66 73.67 -71.32 73.34 -72 73 C-69.89726524 71.1858157 -67.79315953 69.37328574 -65.6875 67.5625 C-64.73387573 66.742052 -64.73387573 66.742052 -63.76098633 65.9050293 C-59.95372939 62.64064398 -56.10192586 59.4484889 -52.1875 56.3125 C-47.87318948 52.81423942 -43.96395505 49.07297491 -40.09375 45.09375 C-38.23461715 43.23461715 -36.33313544 41.55315486 -34.3125 39.875 C-22.22948397 29.42223217 -12.44149897 16.80045807 -3 4 C-2.00100556 2.66591309 -1.00165144 1.33209315 0 0 Z " fill="#000000" transform="translate(224,911)"/>
<path d="M0 0 C13.29329978 3.09845848 25.75971064 8.02801525 38 14 C38.66902344 14.32226562 39.33804688 14.64453125 40.02734375 14.9765625 C55.0792327 22.30876979 69.72723852 32.65239835 80 46 C79.505 46.99 79.505 46.99 79 48 C78.6189209 47.59797363 78.2378418 47.19594727 77.84521484 46.78173828 C52.4133899 20.14936707 18.2324077 2.40209082 -19 0 C-13.55093331 -3.63271113 -6.1900847 -1.23675237 0 0 Z " fill="#000000" transform="translate(670,934)"/>
<path d="M0 0 C2.05516816 2.05516816 2.62927189 3.28953553 3.6875 5.9375 C8.49685158 16.910461 16.0133796 26.02194624 23.3671875 35.3671875 C45.41433116 63.39638604 45.41433116 63.39638604 51 74 C50.67 74.66 50.34 75.32 50 76 C49.3915625 75.08863281 48.783125 74.17726563 48.15625 73.23828125 C39.35236952 60.18070575 29.81984259 47.69138688 20.10546875 35.30078125 C15.737827 29.72055522 11.54611948 24.04747251 7.5625 18.1875 C7.14887207 17.5888916 6.73524414 16.9902832 6.30908203 16.37353516 C3.00262454 11.42000492 0 6.08797856 0 0 Z " fill="#000000" transform="translate(650,934)"/>
</svg>
