<svg xmlns="http://www.w3.org/2000/svg" viewBox="0 0 64 64">
  <style>
    .fg { fill: #000; }
    @media (prefers-color-scheme: dark) {
      .fg { fill: #fff; }
    }
  </style>

  <!-- Centered, italic handwritten F -->
  <g transform="translate(4,0)">
    <path class="fg" d="
      M22 10
      C19 11,17 13,17 16
      L18 50
      C18 53,20 55,23 54
      C25 53,26 51,26 48
      L25 33

      L39 32
      C42 32,44 30,43 28
      C42 26,40 25,37 25
      L25 26

      L24 18
      L45 17
      C48 17,50 15,49 13
      C48 11,46 10,43 10
      Z
    " transform="skewX(-18)"/>

    <!-- Closer, tighter dot -->
    <path class="fg" d="
      M42 47
      C45 46,47 48,46 50
      C45 52,42 53,40 51
      C39 49,40 47,42 47
      Z
    " transform="rotate(-18 42 48)"/>
  </g>
</svg>
